STARTFONT 2.1
COMMENT $XFree86$
COMMENT ISO10646-1 extension by Markus Kuhn <mkuhn@acm.org>, 2001-03-20
COMMENT  (c) Copyright Bigelow & Holmes 1986, 1985. Lucida is a registered
COMMENT  trademark of Bigelow & Holmes. See LEGAL NOTICE file for terms 
COMMENT  of the license. 
FONT -B&H-LucidaBright-DemiBold-R-Normal--14-140-75-75-P-84-ISO10646-1
SIZE 14 72 72
FONTBOUNDINGBOX 23 22 -8 -6
STARTPROPERTIES 22
COMMENT Begin LogicalFontDescription
FONTNAME_REGISTRY ""
FOUNDRY "B&H"
FAMILY_NAME "LucidaBright"
WEIGHT_NAME "DemiBold"
SLANT "R"
SETWIDTH_NAME "Normal"
ADD_STYLE_NAME ""
PIXEL_SIZE 14
POINT_SIZE 140
RESOLUTION_X 75
RESOLUTION_Y 75
SPACING "P"
AVERAGE_WIDTH 84
CHARSET_REGISTRY "ISO10646"
CHARSET_ENCODING "1"
COMMENT END LogicalFontDescription
FONT_ASCENT 13
FONT_DESCENT 3
DEFAULT_CHAR 0
COPYRIGHT "Copyright Bigelow & Holmes 1986, 1985."
FACE_NAME "Lucida Bright Demibold"
X_HEIGHT 7
CAP_HEIGHT 10
ENDPROPERTIES
CHARS 756
STARTCHAR char0
ENCODING 0
SWIDTH 798 0
DWIDTH 11 0
BBX 9 9 1 0
BITMAP
AA80
0000
8080
0000
8080
0000
8080
0000
AA80
ENDCHAR
STARTCHAR space
ENCODING 32
SWIDTH 333 0
DWIDTH 5 0
BBX 1 1 0 0
BITMAP
00
ENDCHAR
STARTCHAR exclam
ENCODING 33
SWIDTH 265 0
DWIDTH 4 0
BBX 2 10 1 0
BITMAP
C0
C0
C0
C0
C0
40
40
00
C0
C0
ENDCHAR
STARTCHAR quotedbl
ENCODING 34
SWIDTH 461 0
DWIDTH 6 0
BBX 6 4 0 6
BITMAP
CC
CC
48
48
ENDCHAR
STARTCHAR numbersign
ENCODING 35
SWIDTH 663 0
DWIDTH 9 0
BBX 9 10 0 0
BITMAP
0900
1200
1200
7F80
1200
2400
FF00
2400
2400
4800
ENDCHAR
STARTCHAR dollar
ENCODING 36
SWIDTH 623 0
DWIDTH 9 0
BBX 6 13 1 -2
BITMAP
10
7C
D4
D4
F0
30
18
1C
9C
DC
F8
10
10
ENDCHAR
STARTCHAR percent
ENCODING 37
SWIDTH 759 0
DWIDTH 11 0
BBX 10 10 0 0
BITMAP
70C0
D980
DB00
DA00
7400
0B80
16C0
36C0
66C0
C380
ENDCHAR
STARTCHAR ampersand
ENCODING 38
SWIDTH 765 0
DWIDTH 11 0
BBX 10 10 0 0
BITMAP
1C00
3600
3600
3C00
39C0
4880
CC80
C700
E700
3DC0
ENDCHAR
STARTCHAR quotesingle
ENCODING 39
SWIDTH 253 0
DWIDTH 4 0
BBX 3 4 0 6
BITMAP
E0
E0
40
40
ENDCHAR
STARTCHAR parenleft
ENCODING 40
SWIDTH 327 0
DWIDTH 5 0
BBX 4 13 0 -3
BITMAP
10
20
60
40
C0
C0
C0
C0
C0
40
60
20
10
ENDCHAR
STARTCHAR parenright
ENCODING 41
SWIDTH 327 0
DWIDTH 5 0
BBX 4 13 0 -3
BITMAP
80
40
60
20
30
30
30
30
30
20
60
40
80
ENDCHAR
STARTCHAR asterisk
ENCODING 42
SWIDTH 434 0
DWIDTH 6 0
BBX 5 5 1 5
BITMAP
20
A8
D0
D0
50
ENDCHAR
STARTCHAR plus
ENCODING 43
SWIDTH 623 0
DWIDTH 9 0
BBX 9 8 0 0
BITMAP
0800
0800
0800
0800
FF80
0800
0800
0800
ENDCHAR
STARTCHAR comma
ENCODING 44
SWIDTH 265 0
DWIDTH 4 0
BBX 2 5 1 -3
BITMAP
C0
C0
C0
C0
C0
ENDCHAR
STARTCHAR hyphen
ENCODING 45
SWIDTH 289 0
DWIDTH 4 0
BBX 3 2 1 3
BITMAP
E0
E0
ENDCHAR
STARTCHAR period
ENCODING 46
SWIDTH 265 0
DWIDTH 4 0
BBX 2 2 1 0
BITMAP
C0
C0
ENDCHAR
STARTCHAR slash
ENCODING 47
SWIDTH 527 0
DWIDTH 7 0
BBX 7 13 0 -3
BITMAP
02
04
04
08
08
10
10
10
20
20
40
40
80
ENDCHAR
STARTCHAR zero
ENCODING 48
SWIDTH 623 0
DWIDTH 9 0
BBX 8 10 0 0
BITMAP
3C
66
C3
C3
C3
C3
C3
C3
66
3C
ENDCHAR
STARTCHAR one
ENCODING 49
SWIDTH 623 0
DWIDTH 9 0
BBX 6 10 1 0
BITMAP
F0
30
30
30
30
30
30
30
30
FC
ENDCHAR
STARTCHAR two
ENCODING 50
SWIDTH 623 0
DWIDTH 9 0
BBX 7 10 1 0
BITMAP
FC
CE
86
06
0C
18
30
40
FE
FE
ENDCHAR
STARTCHAR three
ENCODING 51
SWIDTH 623 0
DWIDTH 9 0
BBX 7 10 1 0
BITMAP
FC
8E
86
04
78
0C
06
86
8E
F8
ENDCHAR
STARTCHAR four
ENCODING 52
SWIDTH 623 0
DWIDTH 9 0
BBX 8 10 0 0
BITMAP
0E
0E
16
26
46
FF
FF
06
06
0F
ENDCHAR
STARTCHAR five
ENCODING 53
SWIDTH 623 0
DWIDTH 9 0
BBX 6 10 2 0
BITMAP
FC
FC
80
80
F8
1C
0C
8C
9C
F0
ENDCHAR
STARTCHAR six
ENCODING 54
SWIDTH 623 0
DWIDTH 9 0
BBX 8 10 0 0
BITMAP
3E
62
42
C0
DE
E7
C3
C3
67
3C
ENDCHAR
STARTCHAR seven
ENCODING 55
SWIDTH 623 0
DWIDTH 9 0
BBX 7 10 1 0
BITMAP
FE
FE
04
08
18
30
20
60
C0
C0
ENDCHAR
STARTCHAR eight
ENCODING 56
SWIDTH 623 0
DWIDTH 9 0
BBX 7 10 1 0
BITMAP
7C
C6
C6
E4
38
5C
C6
C6
E6
7C
ENDCHAR
STARTCHAR nine
ENCODING 57
SWIDTH 623 0
DWIDTH 9 0
BBX 8 10 0 0
BITMAP
3C
E6
C3
C3
E7
7B
03
42
46
7C
ENDCHAR
STARTCHAR colon
ENCODING 58
SWIDTH 265 0
DWIDTH 4 0
BBX 2 7 1 0
BITMAP
C0
C0
00
00
00
C0
C0
ENDCHAR
STARTCHAR semicolon
ENCODING 59
SWIDTH 265 0
DWIDTH 4 0
BBX 2 10 1 -3
BITMAP
C0
C0
00
00
00
C0
C0
C0
C0
80
ENDCHAR
STARTCHAR less
ENCODING 60
SWIDTH 623 0
DWIDTH 9 0
BBX 8 8 0 0
BITMAP
01
06
18
E0
60
18
06
01
ENDCHAR
STARTCHAR equal
ENCODING 61
SWIDTH 623 0
DWIDTH 9 0
BBX 8 4 0 2
BITMAP
FF
00
00
FF
ENDCHAR
STARTCHAR greater
ENCODING 62
SWIDTH 623 0
DWIDTH 9 0
BBX 8 8 0 0
BITMAP
80
60
18
06
07
18
60
80
ENDCHAR
STARTCHAR question
ENCODING 63
SWIDTH 505 0
DWIDTH 7 0
BBX 6 10 1 0
BITMAP
F8
9C
8C
08
10
20
60
00
60
60
ENDCHAR
STARTCHAR at
ENCODING 64
SWIDTH 861 0
DWIDTH 12 0
BBX 12 10 0 0
BITMAP
0FC0
1060
6710
4C90
9990
9990
9BA0
9DC0
6100
1E00
ENDCHAR
STARTCHAR A
ENCODING 65
SWIDTH 795 0
DWIDTH 11 0
BBX 11 10 0 0
BITMAP
0400
0E00
0E00
1700
1300
2380
3F80
41C0
40C0
E1E0
ENDCHAR
STARTCHAR B
ENCODING 66
SWIDTH 639 0
DWIDTH 9 0
BBX 8 10 0 0
BITMAP
FE
63
63
67
7C
66
63
63
67
FE
ENDCHAR
STARTCHAR C
ENCODING 67
SWIDTH 711 0
DWIDTH 10 0
BBX 9 10 0 0
BITMAP
1F80
7080
6080
C000
C000
C000
C000
6000
7080
1F00
ENDCHAR
STARTCHAR D
ENCODING 68
SWIDTH 794 0
DWIDTH 11 0
BBX 10 10 0 0
BITMAP
FF00
6180
60C0
60C0
60C0
60C0
60C0
6080
6180
FE00
ENDCHAR
STARTCHAR E
ENCODING 69
SWIDTH 601 0
DWIDTH 8 0
BBX 7 10 1 0
BITMAP
FE
62
60
64
7C
64
60
60
62
FE
ENDCHAR
STARTCHAR F
ENCODING 70
SWIDTH 584 0
DWIDTH 8 0
BBX 7 10 0 0
BITMAP
FE
62
60
64
7C
64
60
60
60
F0
ENDCHAR
STARTCHAR G
ENCODING 71
SWIDTH 753 0
DWIDTH 11 0
BBX 10 10 0 0
BITMAP
1F80
7180
6080
C000
C000
C3C0
C180
6180
7180
1F80
ENDCHAR
STARTCHAR H
ENCODING 72
SWIDTH 798 0
DWIDTH 11 0
BBX 10 10 1 0
BITMAP
F3C0
6180
6180
6180
7F80
6180
6180
6180
6180
F3C0
ENDCHAR
STARTCHAR I
ENCODING 73
SWIDTH 349 0
DWIDTH 5 0
BBX 4 10 0 0
BITMAP
F0
60
60
60
60
60
60
60
60
F0
ENDCHAR
STARTCHAR J
ENCODING 74
SWIDTH 452 0
DWIDTH 6 0
BBX 6 13 0 -3
BITMAP
3C
18
18
18
18
18
18
18
18
18
18
98
F0
ENDCHAR
STARTCHAR K
ENCODING 75
SWIDTH 747 0
DWIDTH 10 0
BBX 10 10 0 0
BITMAP
F380
6100
6600
6C00
7800
7C00
6E00
6700
6380
F7C0
ENDCHAR
STARTCHAR L
ENCODING 76
SWIDTH 584 0
DWIDTH 8 0
BBX 8 10 0 0
BITMAP
F0
60
60
60
60
60
60
61
61
FF
ENDCHAR
STARTCHAR M
ENCODING 77
SWIDTH 904 0
DWIDTH 13 0
BBX 12 10 0 0
BITMAP
F070
70E0
70E0
59E0
5960
4E60
4E60
4460
4460
E0F0
ENDCHAR
STARTCHAR N
ENCODING 78
SWIDTH 788 0
DWIDTH 11 0
BBX 10 10 0 0
BITMAP
E1C0
7080
7080
5880
5C80
4E80
4680
4380
4380
E180
ENDCHAR
STARTCHAR O
ENCODING 79
SWIDTH 810 0
DWIDTH 11 0
BBX 10 10 1 0
BITMAP
1E00
6180
6180
C0C0
C0C0
C0C0
C0C0
6180
6180
1E00
ENDCHAR
STARTCHAR P
ENCODING 80
SWIDTH 614 0
DWIDTH 9 0
BBX 8 10 0 0
BITMAP
FE
63
63
63
62
7C
60
60
60
F0
ENDCHAR
STARTCHAR Q
ENCODING 81
SWIDTH 810 0
DWIDTH 11 0
BBX 12 13 1 -3
BITMAP
1E00
6180
6180
C0C0
C0C0
C0C0
C0C0
61C0
6180
1F00
0180
00F0
0060
ENDCHAR
STARTCHAR R
ENCODING 82
SWIDTH 720 0
DWIDTH 10 0
BBX 10 10 0 0
BITMAP
FE00
6300
6300
6300
6600
7C00
6E00
6700
6380
F1C0
ENDCHAR
STARTCHAR S
ENCODING 83
SWIDTH 556 0
DWIDTH 8 0
BBX 7 10 1 0
BITMAP
7C
C4
C4
E0
78
1C
0E
86
8E
F8
ENDCHAR
STARTCHAR T
ENCODING 84
SWIDTH 714 0
DWIDTH 10 0
BBX 10 10 0 0
BITMAP
FFC0
8C40
0C00
0C00
0C00
0C00
0C00
0C00
0C00
1E00
ENDCHAR
STARTCHAR U
ENCODING 85
SWIDTH 747 0
DWIDTH 10 0
BBX 10 10 0 0
BITMAP
F1C0
6080
6080
6080
6080
6080
6080
6080
7180
3F00
ENDCHAR
STARTCHAR V
ENCODING 86
SWIDTH 753 0
DWIDTH 11 0
BBX 11 10 0 0
BITMAP
F8E0
7040
30C0
3080
1980
1900
0D00
0E00
0600
0400
ENDCHAR
STARTCHAR W
ENCODING 87
SWIDTH 955 0
DWIDTH 13 0
BBX 13 10 0 0
BITMAP
F338
6310
6310
7720
35A0
35A0
39C0
18C0
18C0
10C0
ENDCHAR
STARTCHAR X
ENCODING 88
SWIDTH 702 0
DWIDTH 10 0
BBX 10 10 0 0
BITMAP
F9C0
7080
3900
1A00
1E00
1E00
1600
2300
4380
E3C0
ENDCHAR
STARTCHAR Y
ENCODING 89
SWIDTH 717 0
DWIDTH 10 0
BBX 10 10 0 0
BITMAP
F1C0
7080
3100
1B00
1E00
0C00
0C00
0C00
0C00
1E00
ENDCHAR
STARTCHAR Z
ENCODING 90
SWIDTH 639 0
DWIDTH 9 0
BBX 8 10 0 0
BITMAP
FF
87
0E
0C
1C
38
30
70
E1
FF
ENDCHAR
STARTCHAR bracketleft
ENCODING 91
SWIDTH 327 0
DWIDTH 5 0
BBX 3 13 1 -3
BITMAP
E0
C0
C0
C0
C0
C0
C0
C0
C0
C0
C0
C0
E0
ENDCHAR
STARTCHAR backslash
ENCODING 92
SWIDTH 527 0
DWIDTH 7 0
BBX 7 13 0 -3
BITMAP
80
40
40
20
20
10
10
18
08
08
04
04
02
ENDCHAR
STARTCHAR bracketright
ENCODING 93
SWIDTH 327 0
DWIDTH 5 0
BBX 3 13 1 -3
BITMAP
E0
60
60
60
60
60
60
60
60
60
60
60
E0
ENDCHAR
STARTCHAR asciicircum
ENCODING 94
SWIDTH 623 0
DWIDTH 9 0
BBX 8 8 0 2
BITMAP
08
18
18
24
24
42
42
81
ENDCHAR
STARTCHAR underscore
ENCODING 95
SWIDTH 500 0
DWIDTH 7 0
BBX 6 1 1 -2
BITMAP
FC
ENDCHAR
STARTCHAR grave
ENCODING 96
SWIDTH 617 0
DWIDTH 9 0
BBX 3 2 2 8
BITMAP
C0
20
ENDCHAR
STARTCHAR a
ENCODING 97
SWIDTH 556 0
DWIDTH 8 0
BBX 7 7 0 0
BITMAP
78
4C
0C
7C
CC
CC
76
ENDCHAR
STARTCHAR b
ENCODING 98
SWIDTH 640 0
DWIDTH 9 0
BBX 8 10 0 0
BITMAP
E0
60
60
6E
7F
63
63
63
67
7E
ENDCHAR
STARTCHAR c
ENCODING 99
SWIDTH 541 0
DWIDTH 8 0
BBX 6 7 1 0
BITMAP
3C
44
C4
C0
C0
60
3C
ENDCHAR
STARTCHAR d
ENCODING 100
SWIDTH 652 0
DWIDTH 9 0
BBX 8 10 1 0
BITMAP
0E
06
06
7E
C6
C6
C6
C6
FE
77
ENDCHAR
STARTCHAR e
ENCODING 101
SWIDTH 568 0
DWIDTH 8 0
BBX 7 7 0 0
BITMAP
38
44
C6
FE
C0
60
3E
ENDCHAR
STARTCHAR f
ENCODING 102
SWIDTH 416 0
DWIDTH 6 0
BBX 6 10 0 0
BITMAP
3C
64
60
F8
60
60
60
60
60
F0
ENDCHAR
STARTCHAR g
ENCODING 103
SWIDTH 599 0
DWIDTH 8 0
BBX 8 10 0 -3
BITMAP
3F
66
66
66
3C
7F
7F
43
C3
7C
ENDCHAR
STARTCHAR h
ENCODING 104
SWIDTH 654 0
DWIDTH 9 0
BBX 9 10 0 0
BITMAP
E000
6000
6000
6E00
7F00
6300
6300
6300
6300
F780
ENDCHAR
STARTCHAR i
ENCODING 105
SWIDTH 325 0
DWIDTH 5 0
BBX 4 10 0 0
BITMAP
60
60
00
E0
60
60
60
60
60
F0
ENDCHAR
STARTCHAR j
ENCODING 106
SWIDTH 355 0
DWIDTH 5 0
BBX 5 13 0 -3
BITMAP
18
18
00
38
18
18
18
18
18
18
18
98
F0
ENDCHAR
STARTCHAR k
ENCODING 107
SWIDTH 654 0
DWIDTH 9 0
BBX 9 10 0 0
BITMAP
E000
6000
6000
6700
6600
6C00
7800
6E00
6700
F380
ENDCHAR
STARTCHAR l
ENCODING 108
SWIDTH 325 0
DWIDTH 5 0
BBX 4 10 0 0
BITMAP
E0
60
60
60
60
60
60
60
60
F0
ENDCHAR
STARTCHAR m
ENCODING 109
SWIDTH 967 0
DWIDTH 14 0
BBX 14 7 0 0
BITMAP
EE70
7FF8
6318
6318
6318
6318
F7BC
ENDCHAR
STARTCHAR n
ENCODING 110
SWIDTH 654 0
DWIDTH 9 0
BBX 9 7 0 0
BITMAP
EE00
7F00
6300
6300
6300
6300
F780
ENDCHAR
STARTCHAR o
ENCODING 111
SWIDTH 617 0
DWIDTH 9 0
BBX 8 7 0 0
BITMAP
3C
66
C3
C3
C3
66
3C
ENDCHAR
STARTCHAR p
ENCODING 112
SWIDTH 652 0
DWIDTH 9 0
BBX 8 10 0 -3
BITMAP
EE
7F
63
63
63
67
7E
60
60
F0
ENDCHAR
STARTCHAR q
ENCODING 113
SWIDTH 640 0
DWIDTH 9 0
BBX 8 10 1 -3
BITMAP
7E
E6
C6
C6
C6
FE
76
06
06
0F
ENDCHAR
STARTCHAR r
ENCODING 114
SWIDTH 462 0
DWIDTH 6 0
BBX 6 7 0 0
BITMAP
EC
7C
64
60
60
60
F0
ENDCHAR
STARTCHAR s
ENCODING 115
SWIDTH 525 0
DWIDTH 7 0
BBX 6 7 1 0
BITMAP
78
C8
E8
7C
9C
8C
F8
ENDCHAR
STARTCHAR t
ENCODING 116
SWIDTH 389 0
DWIDTH 5 0
BBX 5 9 0 0
BITMAP
60
60
F8
60
60
60
60
60
78
ENDCHAR
STARTCHAR u
ENCODING 117
SWIDTH 654 0
DWIDTH 9 0
BBX 9 7 0 0
BITMAP
E700
6300
6300
6300
6300
7F00
3B80
ENDCHAR
STARTCHAR v
ENCODING 118
SWIDTH 657 0
DWIDTH 9 0
BBX 9 7 0 0
BITMAP
F380
6100
3200
3200
1C00
1C00
0800
ENDCHAR
STARTCHAR w
ENCODING 119
SWIDTH 880 0
DWIDTH 12 0
BBX 12 7 0 0
BITMAP
F270
6720
6720
3740
39C0
1980
1080
ENDCHAR
STARTCHAR x
ENCODING 120
SWIDTH 608 0
DWIDTH 9 0
BBX 9 7 0 0
BITMAP
FB80
7300
3E00
1C00
3E00
6700
E780
ENDCHAR
STARTCHAR y
ENCODING 121
SWIDTH 654 0
DWIDTH 9 0
BBX 9 10 0 -3
BITMAP
F380
6100
3300
3200
1C00
1C00
1800
0800
1000
7000
ENDCHAR
STARTCHAR z
ENCODING 122
SWIDTH 584 0
DWIDTH 8 0
BBX 7 7 1 0
BITMAP
FE
8C
1C
38
70
E2
FE
ENDCHAR
STARTCHAR braceleft
ENCODING 123
SWIDTH 366 0
DWIDTH 5 0
BBX 4 13 1 -3
BITMAP
30
60
60
60
60
60
C0
60
60
60
60
60
30
ENDCHAR
STARTCHAR bar
ENCODING 124
SWIDTH 259 0
DWIDTH 4 0
BBX 1 13 1 -3
BITMAP
80
80
80
80
80
80
80
80
80
80
80
80
80
ENDCHAR
STARTCHAR braceright
ENCODING 125
SWIDTH 366 0
DWIDTH 5 0
BBX 4 13 1 -3
BITMAP
C0
60
60
60
60
60
30
60
60
60
60
60
C0
ENDCHAR
STARTCHAR asciitilde
ENCODING 126
SWIDTH 623 0
DWIDTH 9 0
BBX 8 3 0 2
BITMAP
61
99
86
ENDCHAR
STARTCHAR space
ENCODING 160
SWIDTH 333 0
DWIDTH 5 0
BBX 1 1 0 0
BITMAP
00
ENDCHAR
STARTCHAR exclamdown
ENCODING 161
SWIDTH 265 0
DWIDTH 4 0
BBX 2 10 1 -3
BITMAP
C0
C0
00
40
40
C0
C0
C0
C0
C0
ENDCHAR
STARTCHAR cent
ENCODING 162
SWIDTH 623 0
DWIDTH 9 0
BBX 6 10 1 0
BITMAP
10
3C
54
D4
D0
D0
D0
50
3C
10
ENDCHAR
STARTCHAR sterling
ENCODING 163
SWIDTH 623 0
DWIDTH 9 0
BBX 6 10 2 0
BITMAP
3C
64
64
60
F8
60
60
40
FC
FC
ENDCHAR
STARTCHAR currency
ENCODING 164
SWIDTH 623 0
DWIDTH 9 0
BBX 8 10 0 0
BITMAP
81
C3
7E
66
42
42
66
7E
C3
81
ENDCHAR
STARTCHAR yen
ENCODING 165
SWIDTH 623 0
DWIDTH 9 0
BBX 9 10 0 0
BITMAP
F380
6100
7200
3C00
3E00
1800
3E00
1800
1800
3C00
ENDCHAR
STARTCHAR brokenbar
ENCODING 166
SWIDTH 259 0
DWIDTH 4 0
BBX 1 13 1 -3
BITMAP
80
80
80
80
80
80
00
80
80
80
80
80
80
ENDCHAR
STARTCHAR section
ENCODING 167
SWIDTH 623 0
DWIDTH 9 0
BBX 7 13 1 -3
BITMAP
7E
C2
C2
E0
7C
DE
C6
F6
7C
1E
86
86
FC
ENDCHAR
STARTCHAR dieresis
ENCODING 168
SWIDTH 617 0
DWIDTH 9 0
BBX 4 2 2 8
BITMAP
90
90
ENDCHAR
STARTCHAR copyright
ENCODING 169
SWIDTH 855 0
DWIDTH 12 0
BBX 11 10 0 0
BITMAP
1F00
2080
4F40
9A20
9820
9820
9820
4E40
2080
1F00
ENDCHAR
STARTCHAR ordfeminine
ENCODING 170
SWIDTH 488 0
DWIDTH 7 0
BBX 6 5 1 5
BITMAP
F8
18
78
D8
EC
ENDCHAR
STARTCHAR guillemotleft
ENCODING 171
SWIDTH 566 0
DWIDTH 8 0
BBX 7 7 0 0
BITMAP
12
24
6C
D8
6C
24
12
ENDCHAR
STARTCHAR logicalnot
ENCODING 172
SWIDTH 623 0
DWIDTH 9 0
BBX 8 4 0 2
BITMAP
FF
01
01
01
ENDCHAR
STARTCHAR hyphen
ENCODING 173
SWIDTH 289 0
DWIDTH 4 0
BBX 3 2 1 3
BITMAP
E0
E0
ENDCHAR
STARTCHAR registered
ENCODING 174
SWIDTH 623 0
DWIDTH 9 0
BBX 6 7 1 3
BITMAP
78
CC
B4
B4
B4
CC
78
ENDCHAR
STARTCHAR macron
ENCODING 175
SWIDTH 617 0
DWIDTH 9 0
BBX 4 1 2 9
BITMAP
F0
ENDCHAR
STARTCHAR degree
ENCODING 176
SWIDTH 259 0
DWIDTH 4 0
BBX 3 2 2 8
BITMAP
E0
60
ENDCHAR
STARTCHAR plusminus
ENCODING 177
SWIDTH 623 0
DWIDTH 9 0
BBX 9 8 0 0
BITMAP
0800
0800
0800
FF80
0800
0800
0000
FF80
ENDCHAR
STARTCHAR twosuperior
ENCODING 178
SWIDTH 374 0
DWIDTH 5 0
BBX 4 6 -8 4
BITMAP
E0
90
10
60
40
F0
ENDCHAR
STARTCHAR threesuperior
ENCODING 179
SWIDTH 374 0
DWIDTH 5 0
BBX 4 6 -8 4
BITMAP
F0
90
60
10
90
E0
ENDCHAR
STARTCHAR acute
ENCODING 180
SWIDTH 617 0
DWIDTH 9 0
BBX 3 2 3 8
BITMAP
60
80
ENDCHAR
STARTCHAR mu
ENCODING 181
SWIDTH 705 0
DWIDTH 10 0
BBX 9 10 0 -3
BITMAP
E700
6300
6300
6300
6300
7F00
7B80
6000
6000
6000
ENDCHAR
STARTCHAR paragraph
ENCODING 182
SWIDTH 623 0
DWIDTH 9 0
BBX 6 13 1 -3
BITMAP
7C
F4
F4
F4
74
14
14
14
14
14
14
14
14
ENDCHAR
STARTCHAR periodcentered
ENCODING 183
SWIDTH 623 0
DWIDTH 9 0
BBX 2 2 3 3
BITMAP
C0
C0
ENDCHAR
STARTCHAR cedilla
ENCODING 184
SWIDTH 617 0
DWIDTH 9 0
BBX 2 3 3 -3
BITMAP
40
C0
C0
ENDCHAR
STARTCHAR onesuperior
ENCODING 185
SWIDTH 374 0
DWIDTH 5 0
BBX 3 6 -8 4
BITMAP
C0
40
40
40
40
E0
ENDCHAR
STARTCHAR ordmasculine
ENCODING 186
SWIDTH 488 0
DWIDTH 7 0
BBX 6 5 0 5
BITMAP
78
CC
CC
CC
78
ENDCHAR
STARTCHAR guillemotright
ENCODING 187
SWIDTH 566 0
DWIDTH 8 0
BBX 7 7 1 0
BITMAP
90
48
6C
36
6C
48
90
ENDCHAR
STARTCHAR onequarter
ENCODING 188
SWIDTH 803 0
DWIDTH 11 0
BBX 11 10 2 0
BITMAP
60E0
2180
2380
2700
26C0
7DC0
1F40
3BE0
3040
E0E0
ENDCHAR
STARTCHAR onehalf
ENCODING 189
SWIDTH 803 0
DWIDTH 11 0
BBX 11 10 2 0
BITMAP
60E0
2180
2380
2700
2780
7E40
1C40
3980
3100
E3C0
ENDCHAR
STARTCHAR threequarters
ENCODING 190
SWIDTH 803 0
DWIDTH 11 0
BBX 11 10 2 0
BITMAP
F0E0
9180
6380
1700
96C0
EDC0
1F40
3BE0
3040
E0E0
ENDCHAR
STARTCHAR questiondown
ENCODING 191
SWIDTH 505 0
DWIDTH 7 0
BBX 6 10 1 -3
BITMAP
18
18
00
18
10
20
40
C4
E4
7C
ENDCHAR
STARTCHAR Agrave
ENCODING 192
SWIDTH 795 0
DWIDTH 11 0
BBX 11 13 0 0
BITMAP
0C00
0200
0000
0400
0E00
0E00
1700
1300
2380
3F80
41C0
40C0
E1E0
ENDCHAR
STARTCHAR Aacute
ENCODING 193
SWIDTH 795 0
DWIDTH 11 0
BBX 11 13 0 0
BITMAP
0600
0800
0000
0400
0E00
0E00
1700
1300
2380
3F80
41C0
40C0
E1E0
ENDCHAR
STARTCHAR Acircumflex
ENCODING 194
SWIDTH 795 0
DWIDTH 11 0
BBX 11 13 0 0
BITMAP
0E00
1B00
0000
0400
0E00
0E00
1700
1300
2380
3F80
41C0
40C0
E1E0
ENDCHAR
STARTCHAR Atilde
ENCODING 195
SWIDTH 795 0
DWIDTH 11 0
BBX 11 13 0 0
BITMAP
1D00
1700
0000
0400
0E00
0E00
1700
1300
2380
3F80
41C0
40C0
E1E0
ENDCHAR
STARTCHAR Adieresis
ENCODING 196
SWIDTH 795 0
DWIDTH 11 0
BBX 11 13 0 0
BITMAP
0900
0900
0000
0400
0E00
0E00
1700
1300
2380
3F80
41C0
40C0
E1E0
ENDCHAR
STARTCHAR Aring
ENCODING 197
SWIDTH 795 0
DWIDTH 11 0
BBX 11 13 0 0
BITMAP
0C00
0C00
0000
0400
0E00
0E00
1700
1300
2380
3F80
41C0
40C0
E1E0
ENDCHAR
STARTCHAR AE
ENCODING 198
SWIDTH 959 0
DWIDTH 13 0
BBX 13 10 0 0
BITMAP
03F8
0708
0700
0B10
1BF0
1300
3F00
6300
4308
C7F8
ENDCHAR
STARTCHAR Ccedilla
ENCODING 199
SWIDTH 711 0
DWIDTH 10 0
BBX 9 13 0 -3
BITMAP
1F80
7080
6080
C000
C000
C000
C000
6000
7080
1F00
0400
0C00
0C00
ENDCHAR
STARTCHAR Egrave
ENCODING 200
SWIDTH 601 0
DWIDTH 8 0
BBX 7 13 1 0
BITMAP
30
08
00
FE
62
60
64
7C
64
60
60
62
FE
ENDCHAR
STARTCHAR Eacute
ENCODING 201
SWIDTH 601 0
DWIDTH 8 0
BBX 7 13 1 0
BITMAP
18
20
00
FE
62
60
64
7C
64
60
60
62
FE
ENDCHAR
STARTCHAR Ecircumflex
ENCODING 202
SWIDTH 601 0
DWIDTH 8 0
BBX 7 13 1 0
BITMAP
38
6C
00
FE
62
60
64
7C
64
60
60
62
FE
ENDCHAR
STARTCHAR Edieresis
ENCODING 203
SWIDTH 601 0
DWIDTH 8 0
BBX 7 13 1 0
BITMAP
24
24
00
FE
62
60
64
7C
64
60
60
62
FE
ENDCHAR
STARTCHAR Igrave
ENCODING 204
SWIDTH 349 0
DWIDTH 5 0
BBX 4 13 0 0
BITMAP
C0
20
00
F0
60
60
60
60
60
60
60
60
F0
ENDCHAR
STARTCHAR Iacute
ENCODING 205
SWIDTH 349 0
DWIDTH 5 0
BBX 4 13 0 0
BITMAP
30
40
00
F0
60
60
60
60
60
60
60
60
F0
ENDCHAR
STARTCHAR Icircumflex
ENCODING 206
SWIDTH 349 0
DWIDTH 5 0
BBX 5 13 1 0
BITMAP
70
D8
00
78
30
30
30
30
30
30
30
30
78
ENDCHAR
STARTCHAR Idieresis
ENCODING 207
SWIDTH 349 0
DWIDTH 5 0
BBX 4 13 0 0
BITMAP
90
90
00
F0
60
60
60
60
60
60
60
60
F0
ENDCHAR
STARTCHAR Eth
ENCODING 208
SWIDTH 794 0
DWIDTH 11 0
BBX 10 10 0 0
BITMAP
FF00
6180
60C0
60C0
F8C0
60C0
60C0
6080
6180
FF00
ENDCHAR
STARTCHAR Ntilde
ENCODING 209
SWIDTH 788 0
DWIDTH 11 0
BBX 10 13 0 0
BITMAP
1D00
1700
0000
E1C0
7080
7080
5880
5C80
4E80
4680
4380
4380
E180
ENDCHAR
STARTCHAR Ograve
ENCODING 210
SWIDTH 810 0
DWIDTH 11 0
BBX 10 13 1 0
BITMAP
1800
0400
0000
1E00
6180
6180
C0C0
C0C0
C0C0
C0C0
6180
6180
1E00
ENDCHAR
STARTCHAR Oacute
ENCODING 211
SWIDTH 810 0
DWIDTH 11 0
BBX 10 13 1 0
BITMAP
0600
0800
0000
1E00
6180
6180
C0C0
C0C0
C0C0
C0C0
6180
6180
1E00
ENDCHAR
STARTCHAR Ocircumflex
ENCODING 212
SWIDTH 810 0
DWIDTH 11 0
BBX 10 13 1 0
BITMAP
1C00
3600
0000
1E00
6180
6180
C0C0
C0C0
C0C0
C0C0
6180
6180
1E00
ENDCHAR
STARTCHAR Otilde
ENCODING 213
SWIDTH 810 0
DWIDTH 11 0
BBX 10 13 1 0
BITMAP
3A00
2E00
0000
1E00
6180
6180
C0C0
C0C0
C0C0
C0C0
6180
6180
1E00
ENDCHAR
STARTCHAR Odieresis
ENCODING 214
SWIDTH 810 0
DWIDTH 11 0
BBX 10 13 1 0
BITMAP
1200
1200
0000
1E00
6180
6180
C0C0
C0C0
C0C0
C0C0
6180
6180
1E00
ENDCHAR
STARTCHAR multiply
ENCODING 215
SWIDTH 623 0
DWIDTH 9 0
BBX 8 8 0 0
BITMAP
81
42
24
18
18
24
42
81
ENDCHAR
STARTCHAR Oslash
ENCODING 216
SWIDTH 810 0
DWIDTH 11 0
BBX 10 10 1 0
BITMAP
1E40
6180
61C0
C2C0
C4C0
C8C0
D0C0
E180
6180
9E00
ENDCHAR
STARTCHAR Ugrave
ENCODING 217
SWIDTH 747 0
DWIDTH 10 0
BBX 10 13 0 0
BITMAP
1800
0400
0000
F1C0
6080
6080
6080
6080
6080
6080
6080
7180
3F00
ENDCHAR
STARTCHAR Uacute
ENCODING 218
SWIDTH 747 0
DWIDTH 10 0
BBX 10 13 0 0
BITMAP
0600
0800
0000
F1C0
6080
6080
6080
6080
6080
6080
6080
7180
3F00
ENDCHAR
STARTCHAR Ucircumflex
ENCODING 219
SWIDTH 747 0
DWIDTH 10 0
BBX 10 13 0 0
BITMAP
0E00
1B00
0000
F1C0
6080
6080
6080
6080
6080
6080
6080
7180
3F00
ENDCHAR
STARTCHAR Udieresis
ENCODING 220
SWIDTH 747 0
DWIDTH 10 0
BBX 10 13 0 0
BITMAP
1200
1200
0000
F1C0
6080
6080
6080
6080
6080
6080
6080
7180
3F00
ENDCHAR
STARTCHAR Yacute
ENCODING 221
SWIDTH 717 0
DWIDTH 10 0
BBX 10 13 0 0
BITMAP
0600
0800
0000
F1C0
7080
3100
1B00
1E00
0C00
0C00
0C00
0C00
1E00
ENDCHAR
STARTCHAR Thorn
ENCODING 222
SWIDTH 614 0
DWIDTH 9 0
BBX 8 10 0 0
BITMAP
F0
60
7E
63
63
63
62
7C
60
F0
ENDCHAR
STARTCHAR germandbls
ENCODING 223
SWIDTH 700 0
DWIDTH 10 0
BBX 8 10 1 0
BITMAP
3C
66
64
64
68
6E
67
63
6B
FE
ENDCHAR
STARTCHAR agrave
ENCODING 224
SWIDTH 556 0
DWIDTH 8 0
BBX 7 10 0 0
BITMAP
30
08
00
78
4C
0C
7C
CC
CC
76
ENDCHAR
STARTCHAR aacute
ENCODING 225
SWIDTH 556 0
DWIDTH 8 0
BBX 7 10 0 0
BITMAP
18
20
00
78
4C
0C
7C
CC
CC
76
ENDCHAR
STARTCHAR acircumflex
ENCODING 226
SWIDTH 556 0
DWIDTH 8 0
BBX 7 10 0 0
BITMAP
38
6C
00
78
4C
0C
7C
CC
CC
76
ENDCHAR
STARTCHAR atilde
ENCODING 227
SWIDTH 556 0
DWIDTH 8 0
BBX 7 10 0 0
BITMAP
74
5C
00
78
4C
0C
7C
CC
CC
76
ENDCHAR
STARTCHAR adieresis
ENCODING 228
SWIDTH 556 0
DWIDTH 8 0
BBX 7 10 0 0
BITMAP
48
48
00
78
4C
0C
7C
CC
CC
76
ENDCHAR
STARTCHAR aring
ENCODING 229
SWIDTH 556 0
DWIDTH 8 0
BBX 7 10 0 0
BITMAP
30
30
00
78
4C
0C
7C
CC
CC
76
ENDCHAR
STARTCHAR ae
ENCODING 230
SWIDTH 858 0
DWIDTH 12 0
BBX 11 7 0 0
BITMAP
79C0
4E40
0C60
7FE0
CC00
CE00
73E0
ENDCHAR
STARTCHAR ccedilla
ENCODING 231
SWIDTH 541 0
DWIDTH 8 0
BBX 6 10 1 -3
BITMAP
3C
44
C4
C0
C0
60
3C
10
30
30
ENDCHAR
STARTCHAR egrave
ENCODING 232
SWIDTH 568 0
DWIDTH 8 0
BBX 7 10 0 0
BITMAP
30
08
00
38
44
C6
FE
C0
60
3E
ENDCHAR
STARTCHAR eacute
ENCODING 233
SWIDTH 568 0
DWIDTH 8 0
BBX 7 10 0 0
BITMAP
0C
10
00
38
44
C6
FE
C0
60
3E
ENDCHAR
STARTCHAR ecircumflex
ENCODING 234
SWIDTH 568 0
DWIDTH 8 0
BBX 7 10 0 0
BITMAP
38
6C
00
38
44
C6
FE
C0
60
3E
ENDCHAR
STARTCHAR edieresis
ENCODING 235
SWIDTH 568 0
DWIDTH 8 0
BBX 7 10 0 0
BITMAP
24
24
00
38
44
C6
FE
C0
60
3E
ENDCHAR
STARTCHAR igrave
ENCODING 236
SWIDTH 325 0
DWIDTH 5 0
BBX 4 10 0 0
BITMAP
C0
20
00
E0
60
60
60
60
60
F0
ENDCHAR
STARTCHAR iacute
ENCODING 237
SWIDTH 325 0
DWIDTH 5 0
BBX 4 10 0 0
BITMAP
30
40
00
E0
60
60
60
60
60
F0
ENDCHAR
STARTCHAR icircumflex
ENCODING 238
SWIDTH 325 0
DWIDTH 5 0
BBX 5 10 1 0
BITMAP
70
D8
00
70
30
30
30
30
30
78
ENDCHAR
STARTCHAR idieresis
ENCODING 239
SWIDTH 325 0
DWIDTH 5 0
BBX 4 10 0 0
BITMAP
90
90
00
E0
60
60
60
60
60
F0
ENDCHAR
STARTCHAR eth
ENCODING 240
SWIDTH 652 0
DWIDTH 9 0
BBX 8 11 1 0
BITMAP
0C
F8
3C
4E
3F
67
C3
C3
C3
66
3C
ENDCHAR
STARTCHAR ntilde
ENCODING 241
SWIDTH 654 0
DWIDTH 9 0
BBX 9 10 0 0
BITMAP
3A00
2E00
0000
EE00
7F00
6300
6300
6300
6300
F780
ENDCHAR
STARTCHAR ograve
ENCODING 242
SWIDTH 617 0
DWIDTH 9 0
BBX 8 10 0 0
BITMAP
30
08
00
3C
66
C3
C3
C3
66
3C
ENDCHAR
STARTCHAR oacute
ENCODING 243
SWIDTH 617 0
DWIDTH 9 0
BBX 8 10 0 0
BITMAP
0C
10
00
3C
66
C3
C3
C3
66
3C
ENDCHAR
STARTCHAR ocircumflex
ENCODING 244
SWIDTH 617 0
DWIDTH 9 0
BBX 8 10 0 0
BITMAP
1C
36
00
3C
66
C3
C3
C3
66
3C
ENDCHAR
STARTCHAR otilde
ENCODING 245
SWIDTH 617 0
DWIDTH 9 0
BBX 8 10 0 0
BITMAP
3A
2E
00
3C
66
C3
C3
C3
66
3C
ENDCHAR
STARTCHAR odieresis
ENCODING 246
SWIDTH 617 0
DWIDTH 9 0
BBX 8 10 0 0
BITMAP
24
24
00
3C
66
C3
C3
C3
66
3C
ENDCHAR
STARTCHAR divide
ENCODING 247
SWIDTH 623 0
DWIDTH 9 0
BBX 8 7 0 0
BITMAP
18
18
00
FF
00
18
18
ENDCHAR
STARTCHAR oslash
ENCODING 248
SWIDTH 617 0
DWIDTH 9 0
BBX 8 7 0 0
BITMAP
3D
66
C7
DB
E3
66
BC
ENDCHAR
STARTCHAR ugrave
ENCODING 249
SWIDTH 654 0
DWIDTH 9 0
BBX 9 10 0 0
BITMAP
1800
0400
0000
E700
6300
6300
6300
6300
7F00
3B80
ENDCHAR
STARTCHAR uacute
ENCODING 250
SWIDTH 654 0
DWIDTH 9 0
BBX 9 10 0 0
BITMAP
0600
0800
0000
E700
6300
6300
6300
6300
7F00
3B80
ENDCHAR
STARTCHAR ucircumflex
ENCODING 251
SWIDTH 654 0
DWIDTH 9 0
BBX 9 10 0 0
BITMAP
1C00
3600
0000
E700
6300
6300
6300
6300
7F00
3B80
ENDCHAR
STARTCHAR udieresis
ENCODING 252
SWIDTH 654 0
DWIDTH 9 0
BBX 9 10 0 0
BITMAP
1200
1200
0000
E700
6300
6300
6300
6300
7F00
3B80
ENDCHAR
STARTCHAR yacute
ENCODING 253
SWIDTH 654 0
DWIDTH 9 0
BBX 9 13 0 -3
BITMAP
0C00
1000
0000
F380
6100
3300
3200
1C00
1C00
1800
0800
1000
7000
ENDCHAR
STARTCHAR thorn
ENCODING 254
SWIDTH 652 0
DWIDTH 9 0
BBX 8 13 0 -3
BITMAP
E0
60
60
6E
7F
63
63
63
67
7E
60
60
F0
ENDCHAR
STARTCHAR ydieresis
ENCODING 255
SWIDTH 654 0
DWIDTH 9 0
BBX 9 13 0 -3
BITMAP
2400
2400
0000
F380
6100
3300
3200
1C00
1C00
1800
0800
1000
7000
ENDCHAR
STARTCHAR Amacron
ENCODING 256
SWIDTH 795 0
DWIDTH 11 0
BBX 11 12 0 0
BITMAP
0F00
0000
0400
0E00
0E00
1700
1300
2380
3F80
41C0
40C0
E1E0
ENDCHAR
STARTCHAR amacron
ENCODING 257
SWIDTH 556 0
DWIDTH 8 0
BBX 7 9 0 0
BITMAP
78
00
78
4C
0C
7C
CC
CC
76
ENDCHAR
STARTCHAR Abreve
ENCODING 258
SWIDTH 795 0
DWIDTH 11 0
BBX 11 13 0 0
BITMAP
1100
0E00
0000
0400
0E00
0E00
1700
1300
2380
3F80
41C0
40C0
E1E0
ENDCHAR
STARTCHAR abreve
ENCODING 259
SWIDTH 556 0
DWIDTH 8 0
BBX 7 10 0 0
BITMAP
44
38
00
78
4C
0C
7C
CC
CC
76
ENDCHAR
STARTCHAR Aogonek
ENCODING 260
SWIDTH 795 0
DWIDTH 11 0
BBX 11 13 0 -3
BITMAP
0400
0E00
0E00
1700
1300
2380
3F80
41C0
40C0
E1E0
0000
0600
0600
ENDCHAR
STARTCHAR aogonek
ENCODING 261
SWIDTH 556 0
DWIDTH 8 0
BBX 7 10 0 -3
BITMAP
78
4C
0C
7C
CC
CC
76
00
18
18
ENDCHAR
STARTCHAR Cacute
ENCODING 262
SWIDTH 711 0
DWIDTH 10 0
BBX 9 13 0 0
BITMAP
0600
0800
0000
1F80
7080
6080
C000
C000
C000
C000
6000
7080
1F00
ENDCHAR
STARTCHAR cacute
ENCODING 263
SWIDTH 541 0
DWIDTH 8 0
BBX 6 10 1 0
BITMAP
0C
10
00
3C
44
C4
C0
C0
60
3C
ENDCHAR
STARTCHAR Ccircumflex
ENCODING 264
SWIDTH 711 0
DWIDTH 10 0
BBX 9 13 0 0
BITMAP
1C00
3600
0000
1F80
7080
6080
C000
C000
C000
C000
6000
7080
1F00
ENDCHAR
STARTCHAR ccircumflex
ENCODING 265
SWIDTH 541 0
DWIDTH 8 0
BBX 6 10 1 0
BITMAP
38
6C
00
3C
44
C4
C0
C0
60
3C
ENDCHAR
STARTCHAR Cdotaccent
ENCODING 266
SWIDTH 711 0
DWIDTH 10 0
BBX 9 13 0 0
BITMAP
0C00
0C00
0000
1F80
7080
6080
C000
C000
C000
C000
6000
7080
1F00
ENDCHAR
STARTCHAR cdotaccent
ENCODING 267
SWIDTH 541 0
DWIDTH 8 0
BBX 6 10 1 0
BITMAP
18
18
00
3C
44
C4
C0
C0
60
3C
ENDCHAR
STARTCHAR Ccaron
ENCODING 268
SWIDTH 711 0
DWIDTH 10 0
BBX 9 13 0 0
BITMAP
3600
1C00
0000
1F80
7080
6080
C000
C000
C000
C000
6000
7080
1F00
ENDCHAR
STARTCHAR ccaron
ENCODING 269
SWIDTH 541 0
DWIDTH 8 0
BBX 6 10 1 0
BITMAP
6C
38
00
3C
44
C4
C0
C0
60
3C
ENDCHAR
STARTCHAR Dcaron
ENCODING 270
SWIDTH 794 0
DWIDTH 11 0
BBX 10 13 0 0
BITMAP
3600
1C00
0000
FF00
6180
60C0
60C0
60C0
60C0
60C0
6080
6180
FE00
ENDCHAR
STARTCHAR dcaron
ENCODING 271
SWIDTH 884 0
DWIDTH 13 0
BBX 11 10 1 0
BITMAP
0E60
0660
0660
7E60
C600
C600
C600
C600
FE00
7700
ENDCHAR
STARTCHAR Dcroat
ENCODING 272
SWIDTH 794 0
DWIDTH 11 0
BBX 10 10 0 0
BITMAP
FF00
6180
60C0
60C0
F8C0
60C0
60C0
6080
6180
FF00
ENDCHAR
STARTCHAR dcroat
ENCODING 273
SWIDTH 652 0
DWIDTH 9 0
BBX 8 10 1 0
BITMAP
0E
1E
06
7E
C6
C6
C6
C6
FE
77
ENDCHAR
STARTCHAR Emacron
ENCODING 274
SWIDTH 601 0
DWIDTH 8 0
BBX 7 12 1 0
BITMAP
78
00
FE
62
60
64
7C
64
60
60
62
FE
ENDCHAR
STARTCHAR emacron
ENCODING 275
SWIDTH 568 0
DWIDTH 8 0
BBX 7 9 0 0
BITMAP
3C
00
38
44
C6
FE
C0
60
3E
ENDCHAR
STARTCHAR Ebreve
ENCODING 276
SWIDTH 601 0
DWIDTH 8 0
BBX 7 13 1 0
BITMAP
44
38
00
FE
62
60
64
7C
64
60
60
62
FE
ENDCHAR
STARTCHAR ebreve
ENCODING 277
SWIDTH 568 0
DWIDTH 8 0
BBX 7 10 0 0
BITMAP
44
38
00
38
44
C6
FE
C0
60
3E
ENDCHAR
STARTCHAR Edotaccent
ENCODING 278
SWIDTH 601 0
DWIDTH 8 0
BBX 7 13 1 0
BITMAP
30
30
00
FE
62
60
64
7C
64
60
60
62
FE
ENDCHAR
STARTCHAR edotaccent
ENCODING 279
SWIDTH 568 0
DWIDTH 8 0
BBX 7 10 0 0
BITMAP
18
18
00
38
44
C6
FE
C0
60
3E
ENDCHAR
STARTCHAR Eogonek
ENCODING 280
SWIDTH 601 0
DWIDTH 8 0
BBX 7 13 1 -3
BITMAP
FE
62
60
64
7C
64
60
60
62
FE
00
30
30
ENDCHAR
STARTCHAR eogonek
ENCODING 281
SWIDTH 568 0
DWIDTH 8 0
BBX 7 10 0 -3
BITMAP
38
44
C6
FE
C0
60
3E
00
18
18
ENDCHAR
STARTCHAR Ecaron
ENCODING 282
SWIDTH 601 0
DWIDTH 8 0
BBX 7 13 1 0
BITMAP
6C
38
00
FE
62
60
64
7C
64
60
60
62
FE
ENDCHAR
STARTCHAR ecaron
ENCODING 283
SWIDTH 568 0
DWIDTH 8 0
BBX 7 10 0 0
BITMAP
6C
38
00
38
44
C6
FE
C0
60
3E
ENDCHAR
STARTCHAR Gcircumflex
ENCODING 284
SWIDTH 753 0
DWIDTH 11 0
BBX 10 13 0 0
BITMAP
0E00
1B00
0000
1F80
7180
6080
C000
C000
C3C0
C180
6180
7180
1F80
ENDCHAR
STARTCHAR gcircumflex
ENCODING 285
SWIDTH 599 0
DWIDTH 8 0
BBX 8 13 0 -3
BITMAP
1C
36
00
3F
66
66
66
3C
7F
7F
43
C3
7C
ENDCHAR
STARTCHAR Gbreve
ENCODING 286
SWIDTH 753 0
DWIDTH 11 0
BBX 10 13 0 0
BITMAP
1100
0E00
0000
1F80
7180
6080
C000
C000
C3C0
C180
6180
7180
1F80
ENDCHAR
STARTCHAR gbreve
ENCODING 287
SWIDTH 599 0
DWIDTH 8 0
BBX 8 13 0 -3
BITMAP
22
1C
00
3F
66
66
66
3C
7F
7F
43
C3
7C
ENDCHAR
STARTCHAR Gdotaccent
ENCODING 288
SWIDTH 753 0
DWIDTH 11 0
BBX 10 13 0 0
BITMAP
0C00
0C00
0000
1F80
7180
6080
C000
C000
C3C0
C180
6180
7180
1F80
ENDCHAR
STARTCHAR gdotaccent
ENCODING 289
SWIDTH 599 0
DWIDTH 8 0
BBX 8 13 0 -3
BITMAP
18
18
00
3F
66
66
66
3C
7F
7F
43
C3
7C
ENDCHAR
STARTCHAR Gcommaaccent
ENCODING 290
SWIDTH 753 0
DWIDTH 11 0
BBX 10 16 0 -6
BITMAP
1F80
7180
6080
C000
C000
C3C0
C180
6180
7180
1F80
0000
0C00
0C00
0C00
0C00
0C00
ENDCHAR
STARTCHAR gcommaaccent
ENCODING 291
SWIDTH 599 0
DWIDTH 8 0
BBX 8 15 0 -3
BITMAP
18
18
18
18
00
3F
66
66
66
3C
7F
7F
43
C3
7C
ENDCHAR
STARTCHAR Hcircumflex
ENCODING 292
SWIDTH 798 0
DWIDTH 11 0
BBX 10 13 1 0
BITMAP
0E00
1B00
0000
F3C0
6180
6180
6180
7F80
6180
6180
6180
6180
F3C0
ENDCHAR
STARTCHAR hcircumflex
ENCODING 293
SWIDTH 654 0
DWIDTH 9 0
BBX 9 13 0 0
BITMAP
7000
D800
0000
E000
6000
6000
6E00
7F00
6300
6300
6300
6300
F780
ENDCHAR
STARTCHAR Hbar
ENCODING 294
SWIDTH 798 0
DWIDTH 11 0
BBX 10 10 1 0
BITMAP
F3C0
6180
FFC0
6180
7F80
6180
6180
6180
6180
F3C0
ENDCHAR
STARTCHAR hbar
ENCODING 295
SWIDTH 654 0
DWIDTH 9 0
BBX 9 10 0 0
BITMAP
E000
F000
6000
6E00
7F00
6300
6300
6300
6300
F780
ENDCHAR
STARTCHAR Itilde
ENCODING 296
SWIDTH 349 0
DWIDTH 5 0
BBX 5 13 -1 0
BITMAP
E8
B8
00
78
30
30
30
30
30
30
30
30
78
ENDCHAR
STARTCHAR itilde
ENCODING 297
SWIDTH 325 0
DWIDTH 5 0
BBX 5 10 -1 0
BITMAP
E8
B8
00
70
30
30
30
30
30
78
ENDCHAR
STARTCHAR Imacron
ENCODING 298
SWIDTH 349 0
DWIDTH 5 0
BBX 4 12 0 0
BITMAP
F0
00
F0
60
60
60
60
60
60
60
60
F0
ENDCHAR
STARTCHAR imacron
ENCODING 299
SWIDTH 325 0
DWIDTH 5 0
BBX 4 9 0 0
BITMAP
F0
00
E0
60
60
60
60
60
F0
ENDCHAR
STARTCHAR Ibreve
ENCODING 300
SWIDTH 349 0
DWIDTH 5 0
BBX 5 13 0 0
BITMAP
88
70
00
F0
60
60
60
60
60
60
60
60
F0
ENDCHAR
STARTCHAR ibreve
ENCODING 301
SWIDTH 325 0
DWIDTH 5 0
BBX 5 10 -1 0
BITMAP
88
70
00
70
30
30
30
30
30
78
ENDCHAR
STARTCHAR Iogonek
ENCODING 302
SWIDTH 349 0
DWIDTH 5 0
BBX 4 13 0 -3
BITMAP
F0
60
60
60
60
60
60
60
60
F0
00
60
60
ENDCHAR
STARTCHAR iogonek
ENCODING 303
SWIDTH 325 0
DWIDTH 5 0
BBX 4 13 0 -3
BITMAP
60
60
00
E0
60
60
60
60
60
F0
00
60
60
ENDCHAR
STARTCHAR Idotaccent
ENCODING 304
SWIDTH 349 0
DWIDTH 5 0
BBX 4 13 0 0
BITMAP
60
60
00
F0
60
60
60
60
60
60
60
60
F0
ENDCHAR
STARTCHAR dotlessi
ENCODING 305
SWIDTH 325 0
DWIDTH 5 0
BBX 4 7 0 0
BITMAP
E0
60
60
60
60
60
F0
ENDCHAR
STARTCHAR IJ
ENCODING 306
SWIDTH 784 0
DWIDTH 11 0
BBX 11 13 0 -3
BITMAP
F1E0
60C0
60C0
60C0
60C0
60C0
60C0
60C0
60C0
F0C0
00C0
04C0
0780
ENDCHAR
STARTCHAR ij
ENCODING 307
SWIDTH 664 0
DWIDTH 10 0
BBX 10 13 0 -3
BITMAP
60C0
60C0
0000
E1C0
60C0
60C0
60C0
60C0
60C0
F0C0
00C0
04C0
0780
ENDCHAR
STARTCHAR Jcircumflex
ENCODING 308
SWIDTH 452 0
DWIDTH 6 0
BBX 6 16 0 -3
BITMAP
38
6C
00
3C
18
18
18
18
18
18
18
18
18
18
98
F0
ENDCHAR
STARTCHAR jcircumflex
ENCODING 309
SWIDTH 355 0
DWIDTH 5 0
BBX 6 13 0 -3
BITMAP
38
6C
00
38
18
18
18
18
18
18
18
98
F0
ENDCHAR
STARTCHAR Kcommaaccent
ENCODING 310
SWIDTH 747 0
DWIDTH 10 0
BBX 10 16 0 -6
BITMAP
F380
6100
6600
6C00
7800
7C00
6E00
6700
6380
F7C0
0000
0C00
0C00
0C00
0C00
0C00
ENDCHAR
STARTCHAR kcommaaccent
ENCODING 311
SWIDTH 654 0
DWIDTH 9 0
BBX 9 16 0 -6
BITMAP
E000
6000
6000
6700
6600
6C00
7800
6E00
6700
F380
0000
1800
1800
1800
1800
1800
ENDCHAR
STARTCHAR kgreenlandic
ENCODING 312
SWIDTH 654 0
DWIDTH 9 0
BBX 9 7 0 0
BITMAP
6700
6600
6C00
7800
6E00
6700
F380
ENDCHAR
STARTCHAR Lacute
ENCODING 313
SWIDTH 584 0
DWIDTH 8 0
BBX 8 13 0 0
BITMAP
18
20
00
F0
60
60
60
60
60
60
61
61
FF
ENDCHAR
STARTCHAR lacute
ENCODING 314
SWIDTH 325 0
DWIDTH 5 0
BBX 4 13 0 0
BITMAP
30
40
00
E0
60
60
60
60
60
60
60
60
F0
ENDCHAR
STARTCHAR Lcommaaccent
ENCODING 315
SWIDTH 584 0
DWIDTH 8 0
BBX 8 16 0 -6
BITMAP
F0
60
60
60
60
60
60
61
61
FF
00
18
18
18
18
18
ENDCHAR
STARTCHAR lcommaaccent
ENCODING 316
SWIDTH 325 0
DWIDTH 5 0
BBX 4 16 0 -6
BITMAP
E0
60
60
60
60
60
60
60
60
F0
00
60
60
60
60
60
ENDCHAR
STARTCHAR Lcaron
ENCODING 317
SWIDTH 820 0
DWIDTH 12 0
BBX 11 10 0 0
BITMAP
F060
6060
6060
6060
6000
6000
6000
6100
6100
FF00
ENDCHAR
STARTCHAR lcaron
ENCODING 318
SWIDTH 574 0
DWIDTH 9 0
BBX 8 10 0 0
BITMAP
E3
63
63
63
60
60
60
60
60
F0
ENDCHAR
STARTCHAR Ldot
ENCODING 319
SWIDTH 1178 0
DWIDTH 17 0
BBX 13 10 0 0
BITMAP
F000
6000
6000
6000
6000
6018
6018
6100
6100
FF00
ENDCHAR
STARTCHAR ldot
ENCODING 320
SWIDTH 932 0
DWIDTH 14 0
BBX 10 10 0 0
BITMAP
E000
6000
6000
6000
6000
60C0
60C0
6000
6000
F000
ENDCHAR
STARTCHAR Lslash
ENCODING 321
SWIDTH 584 0
DWIDTH 8 0
BBX 8 10 0 0
BITMAP
F0
60
60
70
60
E0
60
61
61
FF
ENDCHAR
STARTCHAR lslash
ENCODING 322
SWIDTH 325 0
DWIDTH 5 0
BBX 4 10 0 0
BITMAP
E0
60
60
60
70
E0
60
60
60
F0
ENDCHAR
STARTCHAR Nacute
ENCODING 323
SWIDTH 788 0
DWIDTH 11 0
BBX 10 13 0 0
BITMAP
0600
0800
0000
E1C0
7080
7080
5880
5C80
4E80
4680
4380
4380
E180
ENDCHAR
STARTCHAR nacute
ENCODING 324
SWIDTH 654 0
DWIDTH 9 0
BBX 9 10 0 0
BITMAP
0C00
1000
0000
EE00
7F00
6300
6300
6300
6300
F780
ENDCHAR
STARTCHAR Ncommaaccent
ENCODING 325
SWIDTH 788 0
DWIDTH 11 0
BBX 10 16 0 -6
BITMAP
E1C0
7080
7080
5880
5C80
4E80
4680
4380
4380
E180
0000
0C00
0C00
0C00
0C00
0C00
ENDCHAR
STARTCHAR ncommaaccent
ENCODING 326
SWIDTH 654 0
DWIDTH 9 0
BBX 9 13 0 -6
BITMAP
EE00
7F00
6300
6300
6300
6300
F780
0000
0C00
0C00
0C00
0C00
0C00
ENDCHAR
STARTCHAR Ncaron
ENCODING 327
SWIDTH 788 0
DWIDTH 11 0
BBX 10 13 0 0
BITMAP
3600
1C00
0000
E1C0
7080
7080
5880
5C80
4E80
4680
4380
4380
E180
ENDCHAR
STARTCHAR ncaron
ENCODING 328
SWIDTH 654 0
DWIDTH 9 0
BBX 9 10 0 0
BITMAP
3600
1C00
0000
EE00
7F00
6300
6300
6300
6300
F780
ENDCHAR
STARTCHAR napostrophe
ENCODING 329
SWIDTH 906 0
DWIDTH 13 0
BBX 12 10 1 0
BITMAP
C000
C000
C000
DDC0
0FE0
0C60
0C60
0C60
0C60
1EF0
ENDCHAR
STARTCHAR Eng
ENCODING 330
SWIDTH 788 0
DWIDTH 11 0
BBX 10 13 0 -3
BITMAP
E1C0
7080
7080
5880
5C80
4E80
4680
4380
4380
E180
0180
0980
0F00
ENDCHAR
STARTCHAR eng
ENCODING 331
SWIDTH 654 0
DWIDTH 9 0
BBX 8 10 0 -3
BITMAP
EE
7F
63
63
63
63
F3
03
13
1E
ENDCHAR
STARTCHAR Omacron
ENCODING 332
SWIDTH 810 0
DWIDTH 11 0
BBX 10 12 1 0
BITMAP
1E00
0000
1E00
6180
6180
C0C0
C0C0
C0C0
C0C0
6180
6180
1E00
ENDCHAR
STARTCHAR omacron
ENCODING 333
SWIDTH 617 0
DWIDTH 9 0
BBX 8 9 0 0
BITMAP
3C
00
3C
66
C3
C3
C3
66
3C
ENDCHAR
STARTCHAR Obreve
ENCODING 334
SWIDTH 810 0
DWIDTH 11 0
BBX 10 13 1 0
BITMAP
1100
0E00
0000
1E00
6180
6180
C0C0
C0C0
C0C0
C0C0
6180
6180
1E00
ENDCHAR
STARTCHAR obreve
ENCODING 335
SWIDTH 617 0
DWIDTH 9 0
BBX 8 10 0 0
BITMAP
22
1C
00
3C
66
C3
C3
C3
66
3C
ENDCHAR
STARTCHAR Ohungarumlaut
ENCODING 336
SWIDTH 810 0
DWIDTH 11 0
BBX 10 13 1 0
BITMAP
0F00
1400
0000
1E00
6180
6180
C0C0
C0C0
C0C0
C0C0
6180
6180
1E00
ENDCHAR
STARTCHAR ohungarumlaut
ENCODING 337
SWIDTH 617 0
DWIDTH 9 0
BBX 8 10 0 0
BITMAP
1E
28
00
3C
66
C3
C3
C3
66
3C
ENDCHAR
STARTCHAR OE
ENCODING 338
SWIDTH 1044 0
DWIDTH 15 0
BBX 14 10 0 0
BITMAP
1FFC
6384
6180
C188
C1F8
C188
C180
6180
6384
1FFC
ENDCHAR
STARTCHAR oe
ENCODING 339
SWIDTH 943 0
DWIDTH 13 0
BBX 12 7 0 0
BITMAP
3DE0
6720
C630
C7F0
C600
6700
3DF0
ENDCHAR
STARTCHAR Racute
ENCODING 340
SWIDTH 720 0
DWIDTH 10 0
BBX 10 13 0 0
BITMAP
0600
0800
0000
FE00
6300
6300
6300
6600
7C00
6E00
6700
6380
F1C0
ENDCHAR
STARTCHAR racute
ENCODING 341
SWIDTH 462 0
DWIDTH 6 0
BBX 6 10 0 0
BITMAP
18
20
00
EC
7C
64
60
60
60
F0
ENDCHAR
STARTCHAR Rcommaaccent
ENCODING 342
SWIDTH 720 0
DWIDTH 10 0
BBX 10 16 0 -6
BITMAP
FE00
6300
6300
6300
6600
7C00
6E00
6700
6380
F1C0
0000
0C00
0C00
0C00
0C00
0C00
ENDCHAR
STARTCHAR rcommaaccent
ENCODING 343
SWIDTH 462 0
DWIDTH 6 0
BBX 6 13 0 -6
BITMAP
EC
7C
64
60
60
60
F0
00
60
60
60
60
60
ENDCHAR
STARTCHAR Rcaron
ENCODING 344
SWIDTH 720 0
DWIDTH 10 0
BBX 10 13 0 0
BITMAP
3600
1C00
0000
FE00
6300
6300
6300
6600
7C00
6E00
6700
6380
F1C0
ENDCHAR
STARTCHAR rcaron
ENCODING 345
SWIDTH 462 0
DWIDTH 6 0
BBX 6 10 0 0
BITMAP
6C
38
00
EC
7C
64
60
60
60
F0
ENDCHAR
STARTCHAR Sacute
ENCODING 346
SWIDTH 556 0
DWIDTH 8 0
BBX 7 13 1 0
BITMAP
18
20
00
7C
C4
C4
E0
78
1C
0E
86
8E
F8
ENDCHAR
STARTCHAR sacute
ENCODING 347
SWIDTH 525 0
DWIDTH 7 0
BBX 6 10 1 0
BITMAP
18
20
00
78
C8
E8
7C
9C
8C
F8
ENDCHAR
STARTCHAR Scircumflex
ENCODING 348
SWIDTH 556 0
DWIDTH 8 0
BBX 7 13 1 0
BITMAP
38
6C
00
7C
C4
C4
E0
78
1C
0E
86
8E
F8
ENDCHAR
STARTCHAR scircumflex
ENCODING 349
SWIDTH 525 0
DWIDTH 7 0
BBX 6 10 1 0
BITMAP
70
D8
00
78
C8
E8
7C
9C
8C
F8
ENDCHAR
STARTCHAR Scedilla
ENCODING 350
SWIDTH 556 0
DWIDTH 8 0
BBX 7 13 1 -3
BITMAP
7C
C4
C4
E0
78
1C
0E
86
8E
F8
10
30
30
ENDCHAR
STARTCHAR scedilla
ENCODING 351
SWIDTH 525 0
DWIDTH 7 0
BBX 6 10 1 -3
BITMAP
78
C8
E8
7C
9C
8C
F8
10
30
30
ENDCHAR
STARTCHAR Scaron
ENCODING 352
SWIDTH 556 0
DWIDTH 8 0
BBX 7 13 1 0
BITMAP
6C
38
00
7C
C4
C4
E0
78
1C
0E
86
8E
F8
ENDCHAR
STARTCHAR scaron
ENCODING 353
SWIDTH 525 0
DWIDTH 7 0
BBX 6 10 1 0
BITMAP
D8
70
00
78
C8
E8
7C
9C
8C
F8
ENDCHAR
STARTCHAR Tcommaaccent
ENCODING 354
SWIDTH 714 0
DWIDTH 10 0
BBX 10 13 0 -3
BITMAP
FFC0
8C40
0C00
0C00
0C00
0C00
0C00
0C00
0C00
1E00
0400
0C00
0C00
ENDCHAR
STARTCHAR tcommaaccent
ENCODING 355
SWIDTH 389 0
DWIDTH 5 0
BBX 5 12 0 -3
BITMAP
60
60
F8
60
60
60
60
60
78
20
60
60
ENDCHAR
STARTCHAR Tcaron
ENCODING 356
SWIDTH 714 0
DWIDTH 10 0
BBX 10 13 0 0
BITMAP
1B00
0E00
0000
FFC0
8C40
0C00
0C00
0C00
0C00
0C00
0C00
0C00
1E00
ENDCHAR
STARTCHAR tcaron
ENCODING 357
SWIDTH 635 0
DWIDTH 9 0
BBX 8 10 0 0
BITMAP
03
63
63
FB
60
60
60
60
60
78
ENDCHAR
STARTCHAR Tbar
ENCODING 358
SWIDTH 714 0
DWIDTH 10 0
BBX 10 10 0 0
BITMAP
FFC0
8C40
0C00
0C00
1E00
0C00
0C00
0C00
0C00
1E00
ENDCHAR
STARTCHAR tbar
ENCODING 359
SWIDTH 389 0
DWIDTH 5 0
BBX 5 9 0 0
BITMAP
60
60
F8
60
60
78
60
60
78
ENDCHAR
STARTCHAR Utilde
ENCODING 360
SWIDTH 747 0
DWIDTH 10 0
BBX 10 13 0 0
BITMAP
3A00
2E00
0000
F1C0
6080
6080
6080
6080
6080
6080
6080
7180
3F00
ENDCHAR
STARTCHAR utilde
ENCODING 361
SWIDTH 654 0
DWIDTH 9 0
BBX 9 10 0 0
BITMAP
3A00
2E00
0000
E700
6300
6300
6300
6300
7F00
3B80
ENDCHAR
STARTCHAR Umacron
ENCODING 362
SWIDTH 747 0
DWIDTH 10 0
BBX 10 12 0 0
BITMAP
1E00
0000
F1C0
6080
6080
6080
6080
6080
6080
6080
7180
3F00
ENDCHAR
STARTCHAR umacron
ENCODING 363
SWIDTH 654 0
DWIDTH 9 0
BBX 9 9 0 0
BITMAP
3C00
0000
E700
6300
6300
6300
6300
7F00
3B80
ENDCHAR
STARTCHAR Ubreve
ENCODING 364
SWIDTH 747 0
DWIDTH 10 0
BBX 10 13 0 0
BITMAP
2200
1C00
0000
F1C0
6080
6080
6080
6080
6080
6080
6080
7180
3F00
ENDCHAR
STARTCHAR ubreve
ENCODING 365
SWIDTH 654 0
DWIDTH 9 0
BBX 9 10 0 0
BITMAP
2200
1C00
0000
E700
6300
6300
6300
6300
7F00
3B80
ENDCHAR
STARTCHAR Uring
ENCODING 366
SWIDTH 747 0
DWIDTH 10 0
BBX 10 13 0 0
BITMAP
0C00
0C00
0000
F1C0
6080
6080
6080
6080
6080
6080
6080
7180
3F00
ENDCHAR
STARTCHAR uring
ENCODING 367
SWIDTH 654 0
DWIDTH 9 0
BBX 9 10 0 0
BITMAP
1800
1800
0000
E700
6300
6300
6300
6300
7F00
3B80
ENDCHAR
STARTCHAR Uhungarumlaut
ENCODING 368
SWIDTH 747 0
DWIDTH 10 0
BBX 10 13 0 0
BITMAP
0F00
1400
0000
F1C0
6080
6080
6080
6080
6080
6080
6080
7180
3F00
ENDCHAR
STARTCHAR uhungarumlaut
ENCODING 369
SWIDTH 654 0
DWIDTH 9 0
BBX 9 10 0 0
BITMAP
1E00
2800
0000
E700
6300
6300
6300
6300
7F00
3B80
ENDCHAR
STARTCHAR Uogonek
ENCODING 370
SWIDTH 747 0
DWIDTH 10 0
BBX 10 13 0 -3
BITMAP
F1C0
6080
6080
6080
6080
6080
6080
6080
7180
3F00
0000
0C00
0C00
ENDCHAR
STARTCHAR uogonek
ENCODING 371
SWIDTH 654 0
DWIDTH 9 0
BBX 9 10 0 -3
BITMAP
E700
6300
6300
6300
6300
7F00
3B80
0000
0C00
0C00
ENDCHAR
STARTCHAR Wcircumflex
ENCODING 372
SWIDTH 955 0
DWIDTH 13 0
BBX 13 13 0 0
BITMAP
0700
0D80
0000
F338
6310
6310
7720
35A0
35A0
39C0
18C0
18C0
10C0
ENDCHAR
STARTCHAR wcircumflex
ENCODING 373
SWIDTH 880 0
DWIDTH 12 0
BBX 12 10 0 0
BITMAP
0E00
1B00
0000
F270
6720
6720
3740
39C0
1980
1080
ENDCHAR
STARTCHAR Ycircumflex
ENCODING 374
SWIDTH 717 0
DWIDTH 10 0
BBX 10 13 0 0
BITMAP
1C00
3600
0000
F1C0
7080
3100
1B00
1E00
0C00
0C00
0C00
0C00
1E00
ENDCHAR
STARTCHAR ycircumflex
ENCODING 375
SWIDTH 654 0
DWIDTH 9 0
BBX 9 13 0 -3
BITMAP
1C00
3600
0000
F380
6100
3300
3200
1C00
1C00
1800
0800
1000
7000
ENDCHAR
STARTCHAR Ydieresis
ENCODING 376
SWIDTH 717 0
DWIDTH 10 0
BBX 10 13 0 0
BITMAP
1200
1200
0000
F1C0
7080
3100
1B00
1E00
0C00
0C00
0C00
0C00
1E00
ENDCHAR
STARTCHAR Zacute
ENCODING 377
SWIDTH 639 0
DWIDTH 9 0
BBX 8 13 0 0
BITMAP
06
08
00
FF
87
0E
0C
1C
38
30
70
E1
FF
ENDCHAR
STARTCHAR zacute
ENCODING 378
SWIDTH 584 0
DWIDTH 8 0
BBX 7 10 1 0
BITMAP
0C
10
00
FE
8C
1C
38
70
E2
FE
ENDCHAR
STARTCHAR Zdotaccent
ENCODING 379
SWIDTH 639 0
DWIDTH 9 0
BBX 8 13 0 0
BITMAP
18
18
00
FF
87
0E
0C
1C
38
30
70
E1
FF
ENDCHAR
STARTCHAR zdotaccent
ENCODING 380
SWIDTH 584 0
DWIDTH 8 0
BBX 7 10 1 0
BITMAP
18
18
00
FE
8C
1C
38
70
E2
FE
ENDCHAR
STARTCHAR Zcaron
ENCODING 381
SWIDTH 639 0
DWIDTH 9 0
BBX 8 13 0 0
BITMAP
36
1C
00
FF
87
0E
0C
1C
38
30
70
E1
FF
ENDCHAR
STARTCHAR zcaron
ENCODING 382
SWIDTH 584 0
DWIDTH 8 0
BBX 7 10 1 0
BITMAP
6C
38
00
FE
8C
1C
38
70
E2
FE
ENDCHAR
STARTCHAR uni0186
ENCODING 390
SWIDTH 711 0
DWIDTH 10 0
BBX 9 10 0 0
BITMAP
7C00
8700
0300
0180
0180
0180
0180
8300
8700
FC00
ENDCHAR
STARTCHAR uni0189
ENCODING 393
SWIDTH 794 0
DWIDTH 11 0
BBX 10 10 0 0
BITMAP
FF00
6180
60C0
60C0
F8C0
60C0
60C0
6080
6180
FF00
ENDCHAR
STARTCHAR uni018E
ENCODING 398
SWIDTH 601 0
DWIDTH 8 0
BBX 7 10 1 0
BITMAP
FE
8C
0C
0C
4C
7C
4C
0C
8C
FE
ENDCHAR
STARTCHAR florin
ENCODING 402
SWIDTH 623 0
DWIDTH 9 0
BBX 7 13 1 -3
BITMAP
0E
12
30
30
30
F8
60
60
60
60
E0
C0
C0
ENDCHAR
STARTCHAR uni0197
ENCODING 407
SWIDTH 349 0
DWIDTH 5 0
BBX 4 10 0 0
BITMAP
F0
60
60
60
F0
60
60
60
60
F0
ENDCHAR
STARTCHAR uni019A
ENCODING 410
SWIDTH 325 0
DWIDTH 5 0
BBX 4 10 0 0
BITMAP
E0
60
60
60
F0
60
60
60
60
F0
ENDCHAR
STARTCHAR uni019D
ENCODING 413
SWIDTH 788 0
DWIDTH 11 0
BBX 12 13 -2 -3
BITMAP
3870
1C20
1C20
1620
1720
13A0
11A0
18E0
18E0
1860
1800
9800
F000
ENDCHAR
STARTCHAR uni019F
ENCODING 415
SWIDTH 810 0
DWIDTH 11 0
BBX 10 10 1 0
BITMAP
1E00
6180
6180
C0C0
FFC0
C0C0
C0C0
6180
6180
1E00
ENDCHAR
STARTCHAR Ohorn
ENCODING 416
SWIDTH 810 0
DWIDTH 11 0
BBX 11 10 1 0
BITMAP
1E60
61E0
61E0
C0E0
C0C0
C0C0
C0C0
6180
6180
1E00
ENDCHAR
STARTCHAR ohorn
ENCODING 417
SWIDTH 617 0
DWIDTH 9 0
BBX 10 7 0 0
BITMAP
3CC0
66C0
C3C0
C3C0
C300
6600
3C00
ENDCHAR
STARTCHAR uni01A7
ENCODING 423
SWIDTH 556 0
DWIDTH 8 0
BBX 7 10 1 0
BITMAP
7C
46
46
0E
3C
70
E0
C2
E2
3E
ENDCHAR
STARTCHAR uni01A8
ENCODING 424
SWIDTH 525 0
DWIDTH 7 0
BBX 6 7 1 0
BITMAP
78
4C
5C
F8
E4
C4
7C
ENDCHAR
STARTCHAR uni01AE
ENCODING 430
SWIDTH 714 0
DWIDTH 10 0
BBX 10 13 0 -3
BITMAP
FFC0
8C40
0C00
0C00
0C00
0C00
0C00
0C00
0C00
0C00
0C00
0C80
0780
ENDCHAR
STARTCHAR Uhorn
ENCODING 431
SWIDTH 747 0
DWIDTH 10 0
BBX 11 10 0 0
BITMAP
F1E0
60E0
60E0
60E0
6080
6080
6080
6080
7180
3F00
ENDCHAR
STARTCHAR uhorn
ENCODING 432
SWIDTH 654 0
DWIDTH 9 0
BBX 10 7 0 0
BITMAP
E7C0
63C0
63C0
63C0
6300
7F00
3B80
ENDCHAR
STARTCHAR uni01B5
ENCODING 437
SWIDTH 639 0
DWIDTH 9 0
BBX 8 10 0 0
BITMAP
FF
87
0E
0C
3C
38
30
70
E1
FF
ENDCHAR
STARTCHAR uni01B6
ENCODING 438
SWIDTH 584 0
DWIDTH 8 0
BBX 7 7 1 0
BITMAP
FE
8C
1C
3C
70
E2
FE
ENDCHAR
STARTCHAR uni01BB
ENCODING 443
SWIDTH 623 0
DWIDTH 9 0
BBX 7 10 1 0
BITMAP
FC
CE
86
06
FE
18
30
40
FE
FE
ENDCHAR
STARTCHAR uni01BC
ENCODING 444
SWIDTH 623 0
DWIDTH 9 0
BBX 6 10 2 0
BITMAP
FC
FC
80
80
F8
1C
0C
8C
9C
F0
ENDCHAR
STARTCHAR uni01C0
ENCODING 448
SWIDTH 259 0
DWIDTH 4 0
BBX 1 13 1 -3
BITMAP
80
80
80
80
80
80
80
80
80
80
80
80
80
ENDCHAR
STARTCHAR uni01C2
ENCODING 450
SWIDTH 623 0
DWIDTH 9 0
BBX 8 13 0 -2
BITMAP
08
08
08
08
08
FF
08
08
FF
08
08
08
08
ENDCHAR
STARTCHAR uni01C3
ENCODING 451
SWIDTH 265 0
DWIDTH 4 0
BBX 2 10 1 0
BITMAP
C0
C0
C0
C0
C0
40
40
00
C0
C0
ENDCHAR
STARTCHAR uni01CD
ENCODING 461
SWIDTH 795 0
DWIDTH 11 0
BBX 11 13 0 0
BITMAP
1B00
0E00
0000
0400
0E00
0E00
1700
1300
2380
3F80
41C0
40C0
E1E0
ENDCHAR
STARTCHAR uni01CE
ENCODING 462
SWIDTH 556 0
DWIDTH 8 0
BBX 7 10 0 0
BITMAP
6C
38
00
78
4C
0C
7C
CC
CC
76
ENDCHAR
STARTCHAR uni01CF
ENCODING 463
SWIDTH 349 0
DWIDTH 5 0
BBX 5 13 0 0
BITMAP
D8
70
00
F0
60
60
60
60
60
60
60
60
F0
ENDCHAR
STARTCHAR uni01D0
ENCODING 464
SWIDTH 325 0
DWIDTH 5 0
BBX 5 10 -1 0
BITMAP
D8
70
00
70
30
30
30
30
30
78
ENDCHAR
STARTCHAR uni01D1
ENCODING 465
SWIDTH 810 0
DWIDTH 11 0
BBX 10 13 1 0
BITMAP
1B00
0E00
0000
1E00
6180
6180
C0C0
C0C0
C0C0
C0C0
6180
6180
1E00
ENDCHAR
STARTCHAR uni01D2
ENCODING 466
SWIDTH 617 0
DWIDTH 9 0
BBX 8 10 0 0
BITMAP
36
1C
00
3C
66
C3
C3
C3
66
3C
ENDCHAR
STARTCHAR uni01D3
ENCODING 467
SWIDTH 747 0
DWIDTH 10 0
BBX 10 13 0 0
BITMAP
3600
1C00
0000
F1C0
6080
6080
6080
6080
6080
6080
6080
7180
3F00
ENDCHAR
STARTCHAR uni01D4
ENCODING 468
SWIDTH 654 0
DWIDTH 9 0
BBX 9 10 0 0
BITMAP
3600
1C00
0000
E700
6300
6300
6300
6300
7F00
3B80
ENDCHAR
STARTCHAR uni01D5
ENCODING 469
SWIDTH 747 0
DWIDTH 10 0
BBX 10 15 0 0
BITMAP
1E00
0000
1200
1200
0000
F1C0
6080
6080
6080
6080
6080
6080
6080
7180
3F00
ENDCHAR
STARTCHAR uni01D6
ENCODING 470
SWIDTH 654 0
DWIDTH 9 0
BBX 9 12 0 0
BITMAP
1E00
0000
1200
1200
0000
E700
6300
6300
6300
6300
7F00
3B80
ENDCHAR
STARTCHAR uni01D7
ENCODING 471
SWIDTH 747 0
DWIDTH 10 0
BBX 10 16 0 0
BITMAP
0600
0800
0000
1200
1200
0000
F1C0
6080
6080
6080
6080
6080
6080
6080
7180
3F00
ENDCHAR
STARTCHAR uni01D8
ENCODING 472
SWIDTH 654 0
DWIDTH 9 0
BBX 9 13 0 0
BITMAP
0600
0800
0000
1200
1200
0000
E700
6300
6300
6300
6300
7F00
3B80
ENDCHAR
STARTCHAR uni01D9
ENCODING 473
SWIDTH 747 0
DWIDTH 10 0
BBX 10 16 0 0
BITMAP
3600
1C00
0000
1200
1200
0000
F1C0
6080
6080
6080
6080
6080
6080
6080
7180
3F00
ENDCHAR
STARTCHAR uni01DA
ENCODING 474
SWIDTH 654 0
DWIDTH 9 0
BBX 9 13 0 0
BITMAP
3600
1C00
0000
1200
1200
0000
E700
6300
6300
6300
6300
7F00
3B80
ENDCHAR
STARTCHAR uni01DB
ENCODING 475
SWIDTH 747 0
DWIDTH 10 0
BBX 10 16 0 0
BITMAP
1800
0400
0000
1200
1200
0000
F1C0
6080
6080
6080
6080
6080
6080
6080
7180
3F00
ENDCHAR
STARTCHAR uni01DC
ENCODING 476
SWIDTH 654 0
DWIDTH 9 0
BBX 9 13 0 0
BITMAP
1800
0400
0000
1200
1200
0000
E700
6300
6300
6300
6300
7F00
3B80
ENDCHAR
STARTCHAR uni01DD
ENCODING 477
SWIDTH 568 0
DWIDTH 8 0
BBX 7 7 0 0
BITMAP
F8
0C
06
FE
C6
44
38
ENDCHAR
STARTCHAR uni01DE
ENCODING 478
SWIDTH 795 0
DWIDTH 11 0
BBX 11 15 0 0
BITMAP
0F00
0000
0900
0900
0000
0400
0E00
0E00
1700
1300
2380
3F80
41C0
40C0
E1E0
ENDCHAR
STARTCHAR uni01DF
ENCODING 479
SWIDTH 556 0
DWIDTH 8 0
BBX 7 12 0 0
BITMAP
78
00
48
48
00
78
4C
0C
7C
CC
CC
76
ENDCHAR
STARTCHAR uni01E0
ENCODING 480
SWIDTH 795 0
DWIDTH 11 0
BBX 11 15 0 0
BITMAP
0F00
0000
0600
0600
0000
0400
0E00
0E00
1700
1300
2380
3F80
41C0
40C0
E1E0
ENDCHAR
STARTCHAR uni01E1
ENCODING 481
SWIDTH 556 0
DWIDTH 8 0
BBX 7 12 0 0
BITMAP
78
00
30
30
00
78
4C
0C
7C
CC
CC
76
ENDCHAR
STARTCHAR uni01E2
ENCODING 482
SWIDTH 959 0
DWIDTH 13 0
BBX 13 12 0 0
BITMAP
03C0
0000
03F8
0708
0700
0B10
1BF0
1300
3F00
6300
4308
C7F8
ENDCHAR
STARTCHAR uni01E3
ENCODING 483
SWIDTH 858 0
DWIDTH 12 0
BBX 11 9 0 0
BITMAP
1E00
0000
79C0
4E40
0C60
7FE0
CC00
CE00
73E0
ENDCHAR
STARTCHAR uni01E4
ENCODING 484
SWIDTH 753 0
DWIDTH 11 0
BBX 10 10 0 0
BITMAP
1F80
7180
6080
C000
C000
C3C0
C180
63C0
7180
1F80
ENDCHAR
STARTCHAR uni01E5
ENCODING 485
SWIDTH 599 0
DWIDTH 8 0
BBX 8 10 0 -3
BITMAP
3F
66
66
66
3C
7F
7F
FF
C3
7C
ENDCHAR
STARTCHAR Gcaron
ENCODING 486
SWIDTH 753 0
DWIDTH 11 0
BBX 10 13 0 0
BITMAP
1B00
0E00
0000
1F80
7180
6080
C000
C000
C3C0
C180
6180
7180
1F80
ENDCHAR
STARTCHAR gcaron
ENCODING 487
SWIDTH 599 0
DWIDTH 8 0
BBX 8 13 0 -3
BITMAP
36
1C
00
3F
66
66
66
3C
7F
7F
43
C3
7C
ENDCHAR
STARTCHAR uni01E8
ENCODING 488
SWIDTH 747 0
DWIDTH 10 0
BBX 10 13 0 0
BITMAP
3600
1C00
0000
F380
6100
6600
6C00
7800
7C00
6E00
6700
6380
F7C0
ENDCHAR
STARTCHAR uni01E9
ENCODING 489
SWIDTH 654 0
DWIDTH 9 0
BBX 9 13 0 0
BITMAP
D800
7000
0000
E000
6000
6000
6700
6600
6C00
7800
6E00
6700
F380
ENDCHAR
STARTCHAR uni01EA
ENCODING 490
SWIDTH 810 0
DWIDTH 11 0
BBX 10 13 1 -3
BITMAP
1E00
6180
6180
C0C0
C0C0
C0C0
C0C0
6180
6180
1E00
0000
0C00
0C00
ENDCHAR
STARTCHAR uni01EB
ENCODING 491
SWIDTH 617 0
DWIDTH 9 0
BBX 8 10 0 -3
BITMAP
3C
66
C3
C3
C3
66
3C
00
18
18
ENDCHAR
STARTCHAR uni01EC
ENCODING 492
SWIDTH 810 0
DWIDTH 11 0
BBX 10 15 1 -3
BITMAP
1E00
0000
1E00
6180
6180
C0C0
C0C0
C0C0
C0C0
6180
6180
1E00
0000
0C00
0C00
ENDCHAR
STARTCHAR uni01ED
ENCODING 493
SWIDTH 617 0
DWIDTH 9 0
BBX 8 12 0 -3
BITMAP
3C
00
3C
66
C3
C3
C3
66
3C
00
18
18
ENDCHAR
STARTCHAR uni01F0
ENCODING 496
SWIDTH 355 0
DWIDTH 5 0
BBX 6 13 0 -3
BITMAP
6C
38
00
38
18
18
18
18
18
18
18
98
F0
ENDCHAR
STARTCHAR uni01F4
ENCODING 500
SWIDTH 753 0
DWIDTH 11 0
BBX 10 13 0 0
BITMAP
0600
0800
0000
1F80
7180
6080
C000
C000
C3C0
C180
6180
7180
1F80
ENDCHAR
STARTCHAR uni01F5
ENCODING 501
SWIDTH 599 0
DWIDTH 8 0
BBX 8 13 0 -3
BITMAP
0C
10
00
3F
66
66
66
3C
7F
7F
43
C3
7C
ENDCHAR
STARTCHAR uni01F8
ENCODING 504
SWIDTH 788 0
DWIDTH 11 0
BBX 10 13 0 0
BITMAP
3000
0800
0000
E1C0
7080
7080
5880
5C80
4E80
4680
4380
4380
E180
ENDCHAR
STARTCHAR uni01F9
ENCODING 505
SWIDTH 654 0
DWIDTH 9 0
BBX 9 10 0 0
BITMAP
3000
0800
0000
EE00
7F00
6300
6300
6300
6300
F780
ENDCHAR
STARTCHAR Aringacute
ENCODING 506
SWIDTH 795 0
DWIDTH 11 0
BBX 11 16 0 0
BITMAP
0600
0800
0000
0C00
0C00
0000
0400
0E00
0E00
1700
1300
2380
3F80
41C0
40C0
E1E0
ENDCHAR
STARTCHAR aringacute
ENCODING 507
SWIDTH 556 0
DWIDTH 8 0
BBX 7 13 0 0
BITMAP
18
20
00
30
30
00
78
4C
0C
7C
CC
CC
76
ENDCHAR
STARTCHAR AEacute
ENCODING 508
SWIDTH 959 0
DWIDTH 13 0
BBX 13 13 0 0
BITMAP
00C0
0100
0000
03F8
0708
0700
0B10
1BF0
1300
3F00
6300
4308
C7F8
ENDCHAR
STARTCHAR aeacute
ENCODING 509
SWIDTH 858 0
DWIDTH 12 0
BBX 11 10 0 0
BITMAP
0300
0400
0000
79C0
4E40
0C60
7FE0
CC00
CE00
73E0
ENDCHAR
STARTCHAR Oslashacute
ENCODING 510
SWIDTH 810 0
DWIDTH 11 0
BBX 10 13 1 0
BITMAP
0300
0400
0000
1E40
6180
61C0
C2C0
C4C0
C8C0
D0C0
E180
6180
9E00
ENDCHAR
STARTCHAR oslashacute
ENCODING 511
SWIDTH 617 0
DWIDTH 9 0
BBX 8 10 0 0
BITMAP
0C
10
00
3D
66
C7
DB
E3
66
BC
ENDCHAR
STARTCHAR uni0200
ENCODING 512
SWIDTH 795 0
DWIDTH 11 0
BBX 11 13 0 0
BITMAP
3C00
0A00
0000
0400
0E00
0E00
1700
1300
2380
3F80
41C0
40C0
E1E0
ENDCHAR
STARTCHAR uni0201
ENCODING 513
SWIDTH 556 0
DWIDTH 8 0
BBX 7 10 0 0
BITMAP
F0
28
00
78
4C
0C
7C
CC
CC
76
ENDCHAR
STARTCHAR uni0202
ENCODING 514
SWIDTH 795 0
DWIDTH 11 0
BBX 11 13 0 0
BITMAP
0E00
1100
0000
0400
0E00
0E00
1700
1300
2380
3F80
41C0
40C0
E1E0
ENDCHAR
STARTCHAR uni0203
ENCODING 515
SWIDTH 556 0
DWIDTH 8 0
BBX 7 10 0 0
BITMAP
38
44
00
78
4C
0C
7C
CC
CC
76
ENDCHAR
STARTCHAR uni0204
ENCODING 516
SWIDTH 601 0
DWIDTH 8 0
BBX 7 13 1 0
BITMAP
F0
28
00
FE
62
60
64
7C
64
60
60
62
FE
ENDCHAR
STARTCHAR uni0205
ENCODING 517
SWIDTH 568 0
DWIDTH 8 0
BBX 7 10 0 0
BITMAP
F0
28
00
38
44
C6
FE
C0
60
3E
ENDCHAR
STARTCHAR uni0206
ENCODING 518
SWIDTH 601 0
DWIDTH 8 0
BBX 7 13 1 0
BITMAP
38
44
00
FE
62
60
64
7C
64
60
60
62
FE
ENDCHAR
STARTCHAR uni0207
ENCODING 519
SWIDTH 568 0
DWIDTH 8 0
BBX 7 10 0 0
BITMAP
38
44
00
38
44
C6
FE
C0
60
3E
ENDCHAR
STARTCHAR uni0208
ENCODING 520
SWIDTH 349 0
DWIDTH 5 0
BBX 5 13 -1 0
BITMAP
F0
28
00
78
30
30
30
30
30
30
30
30
78
ENDCHAR
STARTCHAR uni0209
ENCODING 521
SWIDTH 325 0
DWIDTH 5 0
BBX 5 10 -1 0
BITMAP
F0
28
00
70
30
30
30
30
30
78
ENDCHAR
STARTCHAR uni020A
ENCODING 522
SWIDTH 349 0
DWIDTH 5 0
BBX 5 13 0 0
BITMAP
70
88
00
F0
60
60
60
60
60
60
60
60
F0
ENDCHAR
STARTCHAR uni020B
ENCODING 523
SWIDTH 325 0
DWIDTH 5 0
BBX 5 10 -1 0
BITMAP
70
88
00
70
30
30
30
30
30
78
ENDCHAR
STARTCHAR uni020C
ENCODING 524
SWIDTH 810 0
DWIDTH 11 0
BBX 10 13 1 0
BITMAP
3C00
0A00
0000
1E00
6180
6180
C0C0
C0C0
C0C0
C0C0
6180
6180
1E00
ENDCHAR
STARTCHAR uni020D
ENCODING 525
SWIDTH 617 0
DWIDTH 9 0
BBX 8 10 0 0
BITMAP
78
14
00
3C
66
C3
C3
C3
66
3C
ENDCHAR
STARTCHAR uni020E
ENCODING 526
SWIDTH 810 0
DWIDTH 11 0
BBX 10 13 1 0
BITMAP
0E00
1100
0000
1E00
6180
6180
C0C0
C0C0
C0C0
C0C0
6180
6180
1E00
ENDCHAR
STARTCHAR uni020F
ENCODING 527
SWIDTH 617 0
DWIDTH 9 0
BBX 8 10 0 0
BITMAP
1C
22
00
3C
66
C3
C3
C3
66
3C
ENDCHAR
STARTCHAR uni0210
ENCODING 528
SWIDTH 720 0
DWIDTH 10 0
BBX 10 13 0 0
BITMAP
7800
1400
0000
FE00
6300
6300
6300
6600
7C00
6E00
6700
6380
F1C0
ENDCHAR
STARTCHAR uni0211
ENCODING 529
SWIDTH 462 0
DWIDTH 6 0
BBX 6 10 0 0
BITMAP
F0
28
00
EC
7C
64
60
60
60
F0
ENDCHAR
STARTCHAR uni0212
ENCODING 530
SWIDTH 720 0
DWIDTH 10 0
BBX 10 13 0 0
BITMAP
1C00
2200
0000
FE00
6300
6300
6300
6600
7C00
6E00
6700
6380
F1C0
ENDCHAR
STARTCHAR uni0213
ENCODING 531
SWIDTH 462 0
DWIDTH 6 0
BBX 6 10 0 0
BITMAP
38
44
00
EC
7C
64
60
60
60
F0
ENDCHAR
STARTCHAR uni0214
ENCODING 532
SWIDTH 747 0
DWIDTH 10 0
BBX 10 13 0 0
BITMAP
3C00
0A00
0000
F1C0
6080
6080
6080
6080
6080
6080
6080
7180
3F00
ENDCHAR
STARTCHAR uni0215
ENCODING 533
SWIDTH 654 0
DWIDTH 9 0
BBX 9 10 0 0
BITMAP
7800
1400
0000
E700
6300
6300
6300
6300
7F00
3B80
ENDCHAR
STARTCHAR uni0216
ENCODING 534
SWIDTH 747 0
DWIDTH 10 0
BBX 10 13 0 0
BITMAP
1C00
2200
0000
F1C0
6080
6080
6080
6080
6080
6080
6080
7180
3F00
ENDCHAR
STARTCHAR uni0217
ENCODING 535
SWIDTH 654 0
DWIDTH 9 0
BBX 9 10 0 0
BITMAP
1C00
2200
0000
E700
6300
6300
6300
6300
7F00
3B80
ENDCHAR
STARTCHAR Scommaaccent
ENCODING 536
SWIDTH 556 0
DWIDTH 8 0
BBX 7 16 1 -6
BITMAP
7C
C4
C4
E0
78
1C
0E
86
8E
F8
00
18
18
18
18
18
ENDCHAR
STARTCHAR scommaaccent
ENCODING 537
SWIDTH 525 0
DWIDTH 7 0
BBX 6 13 1 -6
BITMAP
78
C8
E8
7C
9C
8C
F8
00
30
30
30
30
30
ENDCHAR
STARTCHAR Tcommaaccent
ENCODING 538
SWIDTH 714 0
DWIDTH 10 0
BBX 10 16 0 -6
BITMAP
FFC0
8C40
0C00
0C00
0C00
0C00
0C00
0C00
0C00
1E00
0000
0C00
0C00
0C00
0C00
0C00
ENDCHAR
STARTCHAR tcommaaccent
ENCODING 539
SWIDTH 389 0
DWIDTH 5 0
BBX 5 15 0 -6
BITMAP
60
60
F8
60
60
60
60
60
78
00
30
30
30
30
30
ENDCHAR
STARTCHAR uni021E
ENCODING 542
SWIDTH 798 0
DWIDTH 11 0
BBX 10 13 1 0
BITMAP
1B00
0E00
0000
F3C0
6180
6180
6180
7F80
6180
6180
6180
6180
F3C0
ENDCHAR
STARTCHAR uni021F
ENCODING 543
SWIDTH 654 0
DWIDTH 9 0
BBX 9 13 0 0
BITMAP
D800
7000
0000
E000
6000
6000
6E00
7F00
6300
6300
6300
6300
F780
ENDCHAR
STARTCHAR uni0226
ENCODING 550
SWIDTH 795 0
DWIDTH 11 0
BBX 11 13 0 0
BITMAP
0600
0600
0000
0400
0E00
0E00
1700
1300
2380
3F80
41C0
40C0
E1E0
ENDCHAR
STARTCHAR uni0227
ENCODING 551
SWIDTH 556 0
DWIDTH 8 0
BBX 7 10 0 0
BITMAP
30
30
00
78
4C
0C
7C
CC
CC
76
ENDCHAR
STARTCHAR uni0228
ENCODING 552
SWIDTH 601 0
DWIDTH 8 0
BBX 7 13 1 -3
BITMAP
FE
62
60
64
7C
64
60
60
62
FE
10
30
30
ENDCHAR
STARTCHAR uni0229
ENCODING 553
SWIDTH 568 0
DWIDTH 8 0
BBX 7 10 0 -3
BITMAP
38
44
C6
FE
C0
60
3E
10
30
30
ENDCHAR
STARTCHAR uni022A
ENCODING 554
SWIDTH 810 0
DWIDTH 11 0
BBX 10 15 1 0
BITMAP
1E00
0000
1200
1200
0000
1E00
6180
6180
C0C0
C0C0
C0C0
C0C0
6180
6180
1E00
ENDCHAR
STARTCHAR uni022B
ENCODING 555
SWIDTH 617 0
DWIDTH 9 0
BBX 8 12 0 0
BITMAP
3C
00
24
24
00
3C
66
C3
C3
C3
66
3C
ENDCHAR
STARTCHAR uni022C
ENCODING 556
SWIDTH 810 0
DWIDTH 11 0
BBX 10 15 1 0
BITMAP
1E00
0000
3A00
2E00
0000
1E00
6180
6180
C0C0
C0C0
C0C0
C0C0
6180
6180
1E00
ENDCHAR
STARTCHAR uni022D
ENCODING 557
SWIDTH 617 0
DWIDTH 9 0
BBX 8 12 0 0
BITMAP
3C
00
3A
2E
00
3C
66
C3
C3
C3
66
3C
ENDCHAR
STARTCHAR uni022E
ENCODING 558
SWIDTH 810 0
DWIDTH 11 0
BBX 10 13 1 0
BITMAP
0C00
0C00
0000
1E00
6180
6180
C0C0
C0C0
C0C0
C0C0
6180
6180
1E00
ENDCHAR
STARTCHAR uni022F
ENCODING 559
SWIDTH 617 0
DWIDTH 9 0
BBX 8 10 0 0
BITMAP
18
18
00
3C
66
C3
C3
C3
66
3C
ENDCHAR
STARTCHAR uni0230
ENCODING 560
SWIDTH 810 0
DWIDTH 11 0
BBX 10 15 1 0
BITMAP
1E00
0000
0C00
0C00
0000
1E00
6180
6180
C0C0
C0C0
C0C0
C0C0
6180
6180
1E00
ENDCHAR
STARTCHAR uni0231
ENCODING 561
SWIDTH 617 0
DWIDTH 9 0
BBX 8 12 0 0
BITMAP
3C
00
18
18
00
3C
66
C3
C3
C3
66
3C
ENDCHAR
STARTCHAR uni0232
ENCODING 562
SWIDTH 717 0
DWIDTH 10 0
BBX 10 12 0 0
BITMAP
1E00
0000
F1C0
7080
3100
1B00
1E00
0C00
0C00
0C00
0C00
1E00
ENDCHAR
STARTCHAR uni0233
ENCODING 563
SWIDTH 654 0
DWIDTH 9 0
BBX 9 12 0 -3
BITMAP
3C00
0000
F380
6100
3300
3200
1C00
1C00
1800
0800
1000
7000
ENDCHAR
STARTCHAR uni0250
ENCODING 592
SWIDTH 556 0
DWIDTH 8 0
BBX 7 7 0 0
BITMAP
DC
66
66
7C
60
64
3C
ENDCHAR
STARTCHAR uni0254
ENCODING 596
SWIDTH 541 0
DWIDTH 8 0
BBX 6 7 1 0
BITMAP
F0
88
8C
0C
0C
18
F0
ENDCHAR
STARTCHAR uni0258
ENCODING 600
SWIDTH 568 0
DWIDTH 8 0
BBX 7 7 0 0
BITMAP
38
44
C6
FE
06
0C
F8
ENDCHAR
STARTCHAR uni0259
ENCODING 601
SWIDTH 568 0
DWIDTH 8 0
BBX 7 7 0 0
BITMAP
F8
0C
06
FE
C6
44
38
ENDCHAR
STARTCHAR uni025F
ENCODING 607
SWIDTH 416 0
DWIDTH 6 0
BBX 6 10 0 -3
BITMAP
3C
18
18
18
18
18
7C
18
98
F0
ENDCHAR
STARTCHAR uni0265
ENCODING 613
SWIDTH 654 0
DWIDTH 9 0
BBX 9 10 0 -3
BITMAP
F780
6300
6300
6300
6300
7F00
3B00
0300
0300
0380
ENDCHAR
STARTCHAR uni0275
ENCODING 629
SWIDTH 617 0
DWIDTH 9 0
BBX 8 7 0 0
BITMAP
3C
66
C3
FF
C3
66
3C
ENDCHAR
STARTCHAR uni0279
ENCODING 633
SWIDTH 462 0
DWIDTH 6 0
BBX 6 7 0 0
BITMAP
3C
18
18
18
98
F8
DC
ENDCHAR
STARTCHAR uni0287
ENCODING 647
SWIDTH 389 0
DWIDTH 5 0
BBX 5 9 0 0
BITMAP
F0
30
30
30
30
30
F8
30
30
ENDCHAR
STARTCHAR uni0288
ENCODING 648
SWIDTH 389 0
DWIDTH 5 0
BBX 6 12 0 -3
BITMAP
60
60
F8
60
60
60
60
60
60
60
64
3C
ENDCHAR
STARTCHAR uni0289
ENCODING 649
SWIDTH 654 0
DWIDTH 9 0
BBX 9 7 0 0
BITMAP
E700
6300
6300
FF80
6300
7F00
3B80
ENDCHAR
STARTCHAR uni028C
ENCODING 652
SWIDTH 657 0
DWIDTH 9 0
BBX 9 7 0 0
BITMAP
0800
1C00
1C00
2600
2600
4300
E780
ENDCHAR
STARTCHAR uni028D
ENCODING 653
SWIDTH 880 0
DWIDTH 12 0
BBX 12 7 0 0
BITMAP
1080
1980
39C0
2EC0
4E60
4E60
E4F0
ENDCHAR
STARTCHAR uni028E
ENCODING 654
SWIDTH 654 0
DWIDTH 9 0
BBX 9 10 0 0
BITMAP
0700
0400
0800
0C00
1C00
1C00
2600
6600
4300
E780
ENDCHAR
STARTCHAR uni029E
ENCODING 670
SWIDTH 654 0
DWIDTH 9 0
BBX 9 10 0 -3
BITMAP
E780
7300
3B00
0F00
1B00
3300
7300
0300
0300
0380
ENDCHAR
STARTCHAR uni02BB
ENCODING 699
SWIDTH 265 0
DWIDTH 4 0
BBX 2 4 1 6
BITMAP
C0
C0
C0
C0
ENDCHAR
STARTCHAR afii57929
ENCODING 700
SWIDTH 265 0
DWIDTH 4 0
BBX 2 4 1 6
BITMAP
C0
C0
C0
C0
ENDCHAR
STARTCHAR afii64937
ENCODING 701
SWIDTH 265 0
DWIDTH 4 0
BBX 2 4 1 6
BITMAP
C0
C0
C0
C0
ENDCHAR
STARTCHAR circumflex
ENCODING 710
SWIDTH 617 0
DWIDTH 9 0
BBX 5 2 2 8
BITMAP
70
D8
ENDCHAR
STARTCHAR caron
ENCODING 711
SWIDTH 617 0
DWIDTH 9 0
BBX 5 2 2 8
BITMAP
D8
70
ENDCHAR
STARTCHAR uni02C8
ENCODING 712
SWIDTH 253 0
DWIDTH 4 0
BBX 3 4 0 6
BITMAP
E0
E0
40
40
ENDCHAR
STARTCHAR macron
ENCODING 713
SWIDTH 617 0
DWIDTH 9 0
BBX 4 1 2 9
BITMAP
F0
ENDCHAR
STARTCHAR uni02CA
ENCODING 714
SWIDTH 617 0
DWIDTH 9 0
BBX 3 2 3 8
BITMAP
60
80
ENDCHAR
STARTCHAR uni02CB
ENCODING 715
SWIDTH 617 0
DWIDTH 9 0
BBX 3 2 2 8
BITMAP
C0
20
ENDCHAR
STARTCHAR uni02CD
ENCODING 717
SWIDTH 617 0
DWIDTH 9 0
BBX 4 1 2 -2
BITMAP
F0
ENDCHAR
STARTCHAR uni02CE
ENCODING 718
SWIDTH 617 0
DWIDTH 9 0
BBX 3 2 2 -3
BITMAP
C0
20
ENDCHAR
STARTCHAR uni02CF
ENCODING 719
SWIDTH 617 0
DWIDTH 9 0
BBX 3 2 3 -3
BITMAP
60
80
ENDCHAR
STARTCHAR breve
ENCODING 728
SWIDTH 617 0
DWIDTH 9 0
BBX 5 2 2 8
BITMAP
88
70
ENDCHAR
STARTCHAR dotaccent
ENCODING 729
SWIDTH 617 0
DWIDTH 9 0
BBX 2 2 3 8
BITMAP
C0
C0
ENDCHAR
STARTCHAR ring
ENCODING 730
SWIDTH 617 0
DWIDTH 9 0
BBX 2 2 3 8
BITMAP
C0
C0
ENDCHAR
STARTCHAR ogonek
ENCODING 731
SWIDTH 617 0
DWIDTH 9 0
BBX 2 2 3 -3
BITMAP
C0
C0
ENDCHAR
STARTCHAR tilde
ENCODING 732
SWIDTH 617 0
DWIDTH 9 0
BBX 5 2 2 8
BITMAP
E8
B8
ENDCHAR
STARTCHAR hungarumlaut
ENCODING 733
SWIDTH 617 0
DWIDTH 9 0
BBX 5 2 2 8
BITMAP
78
A0
ENDCHAR
STARTCHAR uni02EE
ENCODING 750
SWIDTH 470 0
DWIDTH 7 0
BBX 5 4 1 6
BITMAP
D8
D8
D8
D8
ENDCHAR
STARTCHAR uni037E
ENCODING 894
SWIDTH 265 0
DWIDTH 4 0
BBX 2 10 1 -3
BITMAP
C0
C0
00
00
00
C0
C0
C0
C0
80
ENDCHAR
STARTCHAR tonos
ENCODING 900
SWIDTH 617 0
DWIDTH 9 0
BBX 3 2 3 8
BITMAP
60
80
ENDCHAR
STARTCHAR dieresistonos
ENCODING 901
SWIDTH 617 0
DWIDTH 9 0
BBX 4 5 2 8
BITMAP
30
40
00
90
90
ENDCHAR
STARTCHAR anoteleia
ENCODING 903
SWIDTH 623 0
DWIDTH 9 0
BBX 2 2 3 3
BITMAP
C0
C0
ENDCHAR
STARTCHAR mu
ENCODING 956
SWIDTH 705 0
DWIDTH 10 0
BBX 9 10 0 -3
BITMAP
E700
6300
6300
6300
6300
7F00
7B80
6000
6000
6000
ENDCHAR
STARTCHAR uni1E00
ENCODING 7680
SWIDTH 795 0
DWIDTH 11 0
BBX 11 13 0 -3
BITMAP
0400
0E00
0E00
1700
1300
2380
3F80
41C0
40C0
E1E0
0000
0600
0600
ENDCHAR
STARTCHAR uni1E01
ENCODING 7681
SWIDTH 556 0
DWIDTH 8 0
BBX 7 10 0 -3
BITMAP
78
4C
0C
7C
CC
CC
76
00
18
18
ENDCHAR
STARTCHAR uni1E02
ENCODING 7682
SWIDTH 639 0
DWIDTH 9 0
BBX 8 13 0 0
BITMAP
18
18
00
FE
63
63
67
7C
66
63
63
67
FE
ENDCHAR
STARTCHAR uni1E03
ENCODING 7683
SWIDTH 640 0
DWIDTH 9 0
BBX 8 13 0 0
BITMAP
30
30
00
E0
60
60
6E
7F
63
63
63
67
7E
ENDCHAR
STARTCHAR uni1E04
ENCODING 7684
SWIDTH 639 0
DWIDTH 9 0
BBX 8 13 0 -3
BITMAP
FE
63
63
67
7C
66
63
63
67
FE
00
18
18
ENDCHAR
STARTCHAR uni1E05
ENCODING 7685
SWIDTH 640 0
DWIDTH 9 0
BBX 8 13 0 -3
BITMAP
E0
60
60
6E
7F
63
63
63
67
7E
00
18
18
ENDCHAR
STARTCHAR uni1E06
ENCODING 7686
SWIDTH 639 0
DWIDTH 9 0
BBX 8 12 0 -2
BITMAP
FE
63
63
67
7C
66
63
63
67
FE
00
3C
ENDCHAR
STARTCHAR uni1E07
ENCODING 7687
SWIDTH 640 0
DWIDTH 9 0
BBX 8 12 0 -2
BITMAP
E0
60
60
6E
7F
63
63
63
67
7E
00
3C
ENDCHAR
STARTCHAR uni1E08
ENCODING 7688
SWIDTH 711 0
DWIDTH 10 0
BBX 9 16 0 -3
BITMAP
0600
0800
0000
1F80
7080
6080
C000
C000
C000
C000
6000
7080
1F00
0400
0C00
0C00
ENDCHAR
STARTCHAR uni1E09
ENCODING 7689
SWIDTH 541 0
DWIDTH 8 0
BBX 6 13 1 -3
BITMAP
18
20
00
3C
44
C4
C0
C0
60
3C
10
30
30
ENDCHAR
STARTCHAR uni1E0A
ENCODING 7690
SWIDTH 794 0
DWIDTH 11 0
BBX 10 13 0 0
BITMAP
0C00
0C00
0000
FF00
6180
60C0
60C0
60C0
60C0
60C0
6080
6180
FE00
ENDCHAR
STARTCHAR uni1E0B
ENCODING 7691
SWIDTH 652 0
DWIDTH 9 0
BBX 8 13 1 0
BITMAP
0C
0C
00
0E
06
06
7E
C6
C6
C6
C6
FE
77
ENDCHAR
STARTCHAR uni1E0C
ENCODING 7692
SWIDTH 794 0
DWIDTH 11 0
BBX 10 13 0 -3
BITMAP
FF00
6180
60C0
60C0
60C0
60C0
60C0
6080
6180
FE00
0000
1800
1800
ENDCHAR
STARTCHAR uni1E0D
ENCODING 7693
SWIDTH 652 0
DWIDTH 9 0
BBX 8 13 1 -3
BITMAP
0E
06
06
7E
C6
C6
C6
C6
FE
77
00
18
18
ENDCHAR
STARTCHAR uni1E0E
ENCODING 7694
SWIDTH 794 0
DWIDTH 11 0
BBX 10 12 0 -2
BITMAP
FF00
6180
60C0
60C0
60C0
60C0
60C0
6080
6180
FE00
0000
3C00
ENDCHAR
STARTCHAR uni1E0F
ENCODING 7695
SWIDTH 652 0
DWIDTH 9 0
BBX 8 12 1 -2
BITMAP
0E
06
06
7E
C6
C6
C6
C6
FE
77
00
3C
ENDCHAR
STARTCHAR uni1E10
ENCODING 7696
SWIDTH 794 0
DWIDTH 11 0
BBX 10 13 0 -3
BITMAP
FF00
6180
60C0
60C0
60C0
60C0
60C0
6080
6180
FE00
0800
1800
1800
ENDCHAR
STARTCHAR uni1E11
ENCODING 7697
SWIDTH 652 0
DWIDTH 9 0
BBX 8 13 1 -3
BITMAP
0E
06
06
7E
C6
C6
C6
C6
FE
77
08
18
18
ENDCHAR
STARTCHAR uni1E12
ENCODING 7698
SWIDTH 794 0
DWIDTH 11 0
BBX 10 13 0 -3
BITMAP
FF00
6180
60C0
60C0
60C0
60C0
60C0
6080
6180
FE00
0000
1C00
3600
ENDCHAR
STARTCHAR uni1E13
ENCODING 7699
SWIDTH 652 0
DWIDTH 9 0
BBX 8 13 1 -3
BITMAP
0E
06
06
7E
C6
C6
C6
C6
FE
77
00
38
6C
ENDCHAR
STARTCHAR uni1E14
ENCODING 7700
SWIDTH 601 0
DWIDTH 8 0
BBX 7 15 1 0
BITMAP
60
10
00
78
00
FE
62
60
64
7C
64
60
60
62
FE
ENDCHAR
STARTCHAR uni1E15
ENCODING 7701
SWIDTH 568 0
DWIDTH 8 0
BBX 7 12 0 0
BITMAP
30
08
00
3C
00
38
44
C6
FE
C0
60
3E
ENDCHAR
STARTCHAR uni1E16
ENCODING 7702
SWIDTH 601 0
DWIDTH 8 0
BBX 7 15 1 0
BITMAP
0C
10
00
78
00
FE
62
60
64
7C
64
60
60
62
FE
ENDCHAR
STARTCHAR uni1E17
ENCODING 7703
SWIDTH 568 0
DWIDTH 8 0
BBX 7 12 0 0
BITMAP
0C
10
00
3C
00
38
44
C6
FE
C0
60
3E
ENDCHAR
STARTCHAR uni1E18
ENCODING 7704
SWIDTH 601 0
DWIDTH 8 0
BBX 7 13 1 -3
BITMAP
FE
62
60
64
7C
64
60
60
62
FE
00
38
6C
ENDCHAR
STARTCHAR uni1E19
ENCODING 7705
SWIDTH 568 0
DWIDTH 8 0
BBX 7 10 0 -3
BITMAP
38
44
C6
FE
C0
60
3E
00
38
6C
ENDCHAR
STARTCHAR uni1E1A
ENCODING 7706
SWIDTH 601 0
DWIDTH 8 0
BBX 7 13 1 -3
BITMAP
FE
62
60
64
7C
64
60
60
62
FE
00
74
5C
ENDCHAR
STARTCHAR uni1E1B
ENCODING 7707
SWIDTH 568 0
DWIDTH 8 0
BBX 7 10 0 -3
BITMAP
38
44
C6
FE
C0
60
3E
00
74
5C
ENDCHAR
STARTCHAR uni1E1C
ENCODING 7708
SWIDTH 601 0
DWIDTH 8 0
BBX 7 16 1 -3
BITMAP
44
38
00
FE
62
60
64
7C
64
60
60
62
FE
10
30
30
ENDCHAR
STARTCHAR uni1E1D
ENCODING 7709
SWIDTH 568 0
DWIDTH 8 0
BBX 7 13 0 -3
BITMAP
44
38
00
38
44
C6
FE
C0
60
3E
10
30
30
ENDCHAR
STARTCHAR uni1E1E
ENCODING 7710
SWIDTH 584 0
DWIDTH 8 0
BBX 7 13 0 0
BITMAP
30
30
00
FE
62
60
64
7C
64
60
60
60
F0
ENDCHAR
STARTCHAR uni1E1F
ENCODING 7711
SWIDTH 416 0
DWIDTH 6 0
BBX 6 13 0 0
BITMAP
30
30
00
3C
64
60
F8
60
60
60
60
60
F0
ENDCHAR
STARTCHAR uni1E20
ENCODING 7712
SWIDTH 753 0
DWIDTH 11 0
BBX 10 12 0 0
BITMAP
1E00
0000
1F80
7180
6080
C000
C000
C3C0
C180
6180
7180
1F80
ENDCHAR
STARTCHAR uni1E21
ENCODING 7713
SWIDTH 599 0
DWIDTH 8 0
BBX 8 12 0 -3
BITMAP
3C
00
3F
66
66
66
3C
7F
7F
43
C3
7C
ENDCHAR
STARTCHAR uni1E22
ENCODING 7714
SWIDTH 798 0
DWIDTH 11 0
BBX 10 13 1 0
BITMAP
0C00
0C00
0000
F3C0
6180
6180
6180
7F80
6180
6180
6180
6180
F3C0
ENDCHAR
STARTCHAR uni1E23
ENCODING 7715
SWIDTH 654 0
DWIDTH 9 0
BBX 9 13 0 0
BITMAP
3000
3000
0000
E000
6000
6000
6E00
7F00
6300
6300
6300
6300
F780
ENDCHAR
STARTCHAR uni1E24
ENCODING 7716
SWIDTH 798 0
DWIDTH 11 0
BBX 10 13 1 -3
BITMAP
F3C0
6180
6180
6180
7F80
6180
6180
6180
6180
F3C0
0000
0C00
0C00
ENDCHAR
STARTCHAR uni1E25
ENCODING 7717
SWIDTH 654 0
DWIDTH 9 0
BBX 9 13 0 -3
BITMAP
E000
6000
6000
6E00
7F00
6300
6300
6300
6300
F780
0000
0C00
0C00
ENDCHAR
STARTCHAR uni1E26
ENCODING 7718
SWIDTH 798 0
DWIDTH 11 0
BBX 10 13 1 0
BITMAP
1200
1200
0000
F3C0
6180
6180
6180
7F80
6180
6180
6180
6180
F3C0
ENDCHAR
STARTCHAR uni1E27
ENCODING 7719
SWIDTH 654 0
DWIDTH 9 0
BBX 9 13 0 0
BITMAP
4800
4800
0000
E000
6000
6000
6E00
7F00
6300
6300
6300
6300
F780
ENDCHAR
STARTCHAR uni1E28
ENCODING 7720
SWIDTH 798 0
DWIDTH 11 0
BBX 10 13 1 -3
BITMAP
F3C0
6180
6180
6180
7F80
6180
6180
6180
6180
F3C0
0400
0C00
0C00
ENDCHAR
STARTCHAR uni1E29
ENCODING 7721
SWIDTH 654 0
DWIDTH 9 0
BBX 9 13 0 -3
BITMAP
E000
6000
6000
6E00
7F00
6300
6300
6300
6300
F780
0800
1800
1800
ENDCHAR
STARTCHAR uni1E2A
ENCODING 7722
SWIDTH 798 0
DWIDTH 11 0
BBX 10 13 1 -3
BITMAP
F3C0
6180
6180
6180
7F80
6180
6180
6180
6180
F3C0
0000
1100
0E00
ENDCHAR
STARTCHAR uni1E2B
ENCODING 7723
SWIDTH 654 0
DWIDTH 9 0
BBX 9 13 0 -3
BITMAP
E000
6000
6000
6E00
7F00
6300
6300
6300
6300
F780
0000
2200
1C00
ENDCHAR
STARTCHAR uni1E2C
ENCODING 7724
SWIDTH 349 0
DWIDTH 5 0
BBX 5 13 0 -3
BITMAP
F0
60
60
60
60
60
60
60
60
F0
00
E8
B8
ENDCHAR
STARTCHAR uni1E2D
ENCODING 7725
SWIDTH 325 0
DWIDTH 5 0
BBX 5 13 0 -3
BITMAP
60
60
00
E0
60
60
60
60
60
F0
00
E8
B8
ENDCHAR
STARTCHAR uni1E2E
ENCODING 7726
SWIDTH 349 0
DWIDTH 5 0
BBX 4 16 0 0
BITMAP
30
40
00
90
90
00
F0
60
60
60
60
60
60
60
60
F0
ENDCHAR
STARTCHAR uni1E2F
ENCODING 7727
SWIDTH 325 0
DWIDTH 5 0
BBX 4 13 0 0
BITMAP
30
40
00
90
90
00
E0
60
60
60
60
60
F0
ENDCHAR
STARTCHAR uni1E30
ENCODING 7728
SWIDTH 747 0
DWIDTH 10 0
BBX 10 13 0 0
BITMAP
0600
0800
0000
F380
6100
6600
6C00
7800
7C00
6E00
6700
6380
F7C0
ENDCHAR
STARTCHAR uni1E31
ENCODING 7729
SWIDTH 654 0
DWIDTH 9 0
BBX 9 13 0 0
BITMAP
1800
2000
0000
E000
6000
6000
6700
6600
6C00
7800
6E00
6700
F380
ENDCHAR
STARTCHAR uni1E32
ENCODING 7730
SWIDTH 747 0
DWIDTH 10 0
BBX 10 13 0 -3
BITMAP
F380
6100
6600
6C00
7800
7C00
6E00
6700
6380
F7C0
0000
0C00
0C00
ENDCHAR
STARTCHAR uni1E33
ENCODING 7731
SWIDTH 654 0
DWIDTH 9 0
BBX 9 13 0 -3
BITMAP
E000
6000
6000
6700
6600
6C00
7800
6E00
6700
F380
0000
1800
1800
ENDCHAR
STARTCHAR uni1E34
ENCODING 7732
SWIDTH 747 0
DWIDTH 10 0
BBX 10 12 0 -2
BITMAP
F380
6100
6600
6C00
7800
7C00
6E00
6700
6380
F7C0
0000
1E00
ENDCHAR
STARTCHAR uni1E35
ENCODING 7733
SWIDTH 654 0
DWIDTH 9 0
BBX 9 12 0 -2
BITMAP
E000
6000
6000
6700
6600
6C00
7800
6E00
6700
F380
0000
3C00
ENDCHAR
STARTCHAR uni1E36
ENCODING 7734
SWIDTH 584 0
DWIDTH 8 0
BBX 8 13 0 -3
BITMAP
F0
60
60
60
60
60
60
61
61
FF
00
18
18
ENDCHAR
STARTCHAR uni1E37
ENCODING 7735
SWIDTH 325 0
DWIDTH 5 0
BBX 4 13 0 -3
BITMAP
E0
60
60
60
60
60
60
60
60
F0
00
60
60
ENDCHAR
STARTCHAR uni1E38
ENCODING 7736
SWIDTH 584 0
DWIDTH 8 0
BBX 8 15 0 -3
BITMAP
78
00
F0
60
60
60
60
60
60
61
61
FF
00
18
18
ENDCHAR
STARTCHAR uni1E39
ENCODING 7737
SWIDTH 325 0
DWIDTH 5 0
BBX 4 15 0 -3
BITMAP
F0
00
E0
60
60
60
60
60
60
60
60
F0
00
60
60
ENDCHAR
STARTCHAR uni1E3A
ENCODING 7738
SWIDTH 584 0
DWIDTH 8 0
BBX 8 12 0 -2
BITMAP
F0
60
60
60
60
60
60
61
61
FF
00
3C
ENDCHAR
STARTCHAR uni1E3B
ENCODING 7739
SWIDTH 325 0
DWIDTH 5 0
BBX 4 12 0 -2
BITMAP
E0
60
60
60
60
60
60
60
60
F0
00
F0
ENDCHAR
STARTCHAR uni1E3C
ENCODING 7740
SWIDTH 584 0
DWIDTH 8 0
BBX 8 13 0 -3
BITMAP
F0
60
60
60
60
60
60
61
61
FF
00
38
6C
ENDCHAR
STARTCHAR uni1E3D
ENCODING 7741
SWIDTH 325 0
DWIDTH 5 0
BBX 5 13 0 -3
BITMAP
E0
60
60
60
60
60
60
60
60
F0
00
70
D8
ENDCHAR
STARTCHAR uni1E3E
ENCODING 7742
SWIDTH 904 0
DWIDTH 13 0
BBX 12 13 0 0
BITMAP
0300
0400
0000
F070
70E0
70E0
59E0
5960
4E60
4E60
4460
4460
E0F0
ENDCHAR
STARTCHAR uni1E3F
ENCODING 7743
SWIDTH 967 0
DWIDTH 14 0
BBX 14 10 0 0
BITMAP
0180
0200
0000
EE70
7FF8
6318
6318
6318
6318
F7BC
ENDCHAR
STARTCHAR uni1E40
ENCODING 7744
SWIDTH 904 0
DWIDTH 13 0
BBX 12 13 0 0
BITMAP
0600
0600
0000
F070
70E0
70E0
59E0
5960
4E60
4E60
4460
4460
E0F0
ENDCHAR
STARTCHAR uni1E41
ENCODING 7745
SWIDTH 967 0
DWIDTH 14 0
BBX 14 10 0 0
BITMAP
0300
0300
0000
EE70
7FF8
6318
6318
6318
6318
F7BC
ENDCHAR
STARTCHAR uni1E42
ENCODING 7746
SWIDTH 904 0
DWIDTH 13 0
BBX 12 13 0 -3
BITMAP
F070
70E0
70E0
59E0
5960
4E60
4E60
4460
4460
E0F0
0000
0600
0600
ENDCHAR
STARTCHAR uni1E43
ENCODING 7747
SWIDTH 967 0
DWIDTH 14 0
BBX 14 10 0 -3
BITMAP
EE70
7FF8
6318
6318
6318
6318
F7BC
0000
0300
0300
ENDCHAR
STARTCHAR uni1E44
ENCODING 7748
SWIDTH 788 0
DWIDTH 11 0
BBX 10 13 0 0
BITMAP
0C00
0C00
0000
E1C0
7080
7080
5880
5C80
4E80
4680
4380
4380
E180
ENDCHAR
STARTCHAR uni1E45
ENCODING 7749
SWIDTH 654 0
DWIDTH 9 0
BBX 9 10 0 0
BITMAP
1800
1800
0000
EE00
7F00
6300
6300
6300
6300
F780
ENDCHAR
STARTCHAR uni1E46
ENCODING 7750
SWIDTH 788 0
DWIDTH 11 0
BBX 10 13 0 -3
BITMAP
E1C0
7080
7080
5880
5C80
4E80
4680
4380
4380
E180
0000
0C00
0C00
ENDCHAR
STARTCHAR uni1E47
ENCODING 7751
SWIDTH 654 0
DWIDTH 9 0
BBX 9 10 0 -3
BITMAP
EE00
7F00
6300
6300
6300
6300
F780
0000
0C00
0C00
ENDCHAR
STARTCHAR uni1E48
ENCODING 7752
SWIDTH 788 0
DWIDTH 11 0
BBX 10 12 0 -2
BITMAP
E1C0
7080
7080
5880
5C80
4E80
4680
4380
4380
E180
0000
1E00
ENDCHAR
STARTCHAR uni1E49
ENCODING 7753
SWIDTH 654 0
DWIDTH 9 0
BBX 9 9 0 -2
BITMAP
EE00
7F00
6300
6300
6300
6300
F780
0000
1E00
ENDCHAR
STARTCHAR uni1E4A
ENCODING 7754
SWIDTH 788 0
DWIDTH 11 0
BBX 10 13 0 -3
BITMAP
E1C0
7080
7080
5880
5C80
4E80
4680
4380
4380
E180
0000
0E00
1B00
ENDCHAR
STARTCHAR uni1E4B
ENCODING 7755
SWIDTH 654 0
DWIDTH 9 0
BBX 9 10 0 -3
BITMAP
EE00
7F00
6300
6300
6300
6300
F780
0000
1C00
3600
ENDCHAR
STARTCHAR uni1E4C
ENCODING 7756
SWIDTH 810 0
DWIDTH 11 0
BBX 10 16 1 0
BITMAP
0600
0800
0000
3A00
2E00
0000
1E00
6180
6180
C0C0
C0C0
C0C0
C0C0
6180
6180
1E00
ENDCHAR
STARTCHAR uni1E4D
ENCODING 7757
SWIDTH 617 0
DWIDTH 9 0
BBX 8 13 0 0
BITMAP
06
08
00
3A
2E
00
3C
66
C3
C3
C3
66
3C
ENDCHAR
STARTCHAR uni1E4E
ENCODING 7758
SWIDTH 810 0
DWIDTH 11 0
BBX 10 16 1 0
BITMAP
1200
1200
0000
3A00
2E00
0000
1E00
6180
6180
C0C0
C0C0
C0C0
C0C0
6180
6180
1E00
ENDCHAR
STARTCHAR uni1E4F
ENCODING 7759
SWIDTH 617 0
DWIDTH 9 0
BBX 8 13 0 0
BITMAP
24
24
00
3A
2E
00
3C
66
C3
C3
C3
66
3C
ENDCHAR
STARTCHAR uni1E50
ENCODING 7760
SWIDTH 810 0
DWIDTH 11 0
BBX 10 15 1 0
BITMAP
1800
0400
0000
1E00
0000
1E00
6180
6180
C0C0
C0C0
C0C0
C0C0
6180
6180
1E00
ENDCHAR
STARTCHAR uni1E51
ENCODING 7761
SWIDTH 617 0
DWIDTH 9 0
BBX 8 12 0 0
BITMAP
30
08
00
3C
00
3C
66
C3
C3
C3
66
3C
ENDCHAR
STARTCHAR uni1E52
ENCODING 7762
SWIDTH 810 0
DWIDTH 11 0
BBX 10 15 1 0
BITMAP
0600
0800
0000
1E00
0000
1E00
6180
6180
C0C0
C0C0
C0C0
C0C0
6180
6180
1E00
ENDCHAR
STARTCHAR uni1E53
ENCODING 7763
SWIDTH 617 0
DWIDTH 9 0
BBX 8 12 0 0
BITMAP
0C
10
00
3C
00
3C
66
C3
C3
C3
66
3C
ENDCHAR
STARTCHAR uni1E54
ENCODING 7764
SWIDTH 614 0
DWIDTH 9 0
BBX 8 13 0 0
BITMAP
0C
10
00
FE
63
63
63
62
7C
60
60
60
F0
ENDCHAR
STARTCHAR uni1E55
ENCODING 7765
SWIDTH 652 0
DWIDTH 9 0
BBX 8 13 0 -3
BITMAP
0C
10
00
EE
7F
63
63
63
67
7E
60
60
F0
ENDCHAR
STARTCHAR uni1E56
ENCODING 7766
SWIDTH 614 0
DWIDTH 9 0
BBX 8 13 0 0
BITMAP
18
18
00
FE
63
63
63
62
7C
60
60
60
F0
ENDCHAR
STARTCHAR uni1E57
ENCODING 7767
SWIDTH 652 0
DWIDTH 9 0
BBX 8 13 0 -3
BITMAP
18
18
00
EE
7F
63
63
63
67
7E
60
60
F0
ENDCHAR
STARTCHAR uni1E58
ENCODING 7768
SWIDTH 720 0
DWIDTH 10 0
BBX 10 13 0 0
BITMAP
1800
1800
0000
FE00
6300
6300
6300
6600
7C00
6E00
6700
6380
F1C0
ENDCHAR
STARTCHAR uni1E59
ENCODING 7769
SWIDTH 462 0
DWIDTH 6 0
BBX 6 10 0 0
BITMAP
30
30
00
EC
7C
64
60
60
60
F0
ENDCHAR
STARTCHAR uni1E5A
ENCODING 7770
SWIDTH 720 0
DWIDTH 10 0
BBX 10 13 0 -3
BITMAP
FE00
6300
6300
6300
6600
7C00
6E00
6700
6380
F1C0
0000
0C00
0C00
ENDCHAR
STARTCHAR uni1E5B
ENCODING 7771
SWIDTH 462 0
DWIDTH 6 0
BBX 6 10 0 -3
BITMAP
EC
7C
64
60
60
60
F0
00
60
60
ENDCHAR
STARTCHAR uni1E5C
ENCODING 7772
SWIDTH 720 0
DWIDTH 10 0
BBX 10 15 0 -3
BITMAP
3C00
0000
FE00
6300
6300
6300
6600
7C00
6E00
6700
6380
F1C0
0000
0C00
0C00
ENDCHAR
STARTCHAR uni1E5D
ENCODING 7773
SWIDTH 462 0
DWIDTH 6 0
BBX 6 12 0 -3
BITMAP
78
00
EC
7C
64
60
60
60
F0
00
60
60
ENDCHAR
STARTCHAR uni1E5E
ENCODING 7774
SWIDTH 720 0
DWIDTH 10 0
BBX 10 12 0 -2
BITMAP
FE00
6300
6300
6300
6600
7C00
6E00
6700
6380
F1C0
0000
1E00
ENDCHAR
STARTCHAR uni1E5F
ENCODING 7775
SWIDTH 462 0
DWIDTH 6 0
BBX 6 9 0 -2
BITMAP
EC
7C
64
60
60
60
F0
00
F0
ENDCHAR
STARTCHAR uni1E60
ENCODING 7776
SWIDTH 556 0
DWIDTH 8 0
BBX 7 13 1 0
BITMAP
30
30
00
7C
C4
C4
E0
78
1C
0E
86
8E
F8
ENDCHAR
STARTCHAR uni1E61
ENCODING 7777
SWIDTH 525 0
DWIDTH 7 0
BBX 6 10 1 0
BITMAP
30
30
00
78
C8
E8
7C
9C
8C
F8
ENDCHAR
STARTCHAR uni1E62
ENCODING 7778
SWIDTH 556 0
DWIDTH 8 0
BBX 7 13 1 -3
BITMAP
7C
C4
C4
E0
78
1C
0E
86
8E
F8
00
18
18
ENDCHAR
STARTCHAR uni1E63
ENCODING 7779
SWIDTH 525 0
DWIDTH 7 0
BBX 6 10 1 -3
BITMAP
78
C8
E8
7C
9C
8C
F8
00
30
30
ENDCHAR
STARTCHAR uni1E64
ENCODING 7780
SWIDTH 556 0
DWIDTH 8 0
BBX 7 16 1 0
BITMAP
18
18
00
18
20
00
7C
C4
C4
E0
78
1C
0E
86
8E
F8
ENDCHAR
STARTCHAR uni1E65
ENCODING 7781
SWIDTH 525 0
DWIDTH 7 0
BBX 6 13 1 0
BITMAP
30
30
00
18
20
00
78
C8
E8
7C
9C
8C
F8
ENDCHAR
STARTCHAR uni1E66
ENCODING 7782
SWIDTH 556 0
DWIDTH 8 0
BBX 7 16 1 0
BITMAP
18
18
00
6C
38
00
7C
C4
C4
E0
78
1C
0E
86
8E
F8
ENDCHAR
STARTCHAR uni1E67
ENCODING 7783
SWIDTH 525 0
DWIDTH 7 0
BBX 6 13 1 0
BITMAP
30
30
00
D8
70
00
78
C8
E8
7C
9C
8C
F8
ENDCHAR
STARTCHAR uni1E68
ENCODING 7784
SWIDTH 556 0
DWIDTH 8 0
BBX 7 16 1 -3
BITMAP
30
30
00
7C
C4
C4
E0
78
1C
0E
86
8E
F8
00
18
18
ENDCHAR
STARTCHAR uni1E69
ENCODING 7785
SWIDTH 525 0
DWIDTH 7 0
BBX 6 13 1 -3
BITMAP
30
30
00
78
C8
E8
7C
9C
8C
F8
00
30
30
ENDCHAR
STARTCHAR uni1E6A
ENCODING 7786
SWIDTH 714 0
DWIDTH 10 0
BBX 10 13 0 0
BITMAP
0C00
0C00
0000
FFC0
8C40
0C00
0C00
0C00
0C00
0C00
0C00
0C00
1E00
ENDCHAR
STARTCHAR uni1E6B
ENCODING 7787
SWIDTH 389 0
DWIDTH 5 0
BBX 5 12 0 0
BITMAP
60
60
00
60
60
F8
60
60
60
60
60
78
ENDCHAR
STARTCHAR uni1E6C
ENCODING 7788
SWIDTH 714 0
DWIDTH 10 0
BBX 10 13 0 -3
BITMAP
FFC0
8C40
0C00
0C00
0C00
0C00
0C00
0C00
0C00
1E00
0000
0C00
0C00
ENDCHAR
STARTCHAR uni1E6D
ENCODING 7789
SWIDTH 389 0
DWIDTH 5 0
BBX 5 12 0 -3
BITMAP
60
60
F8
60
60
60
60
60
78
00
30
30
ENDCHAR
STARTCHAR uni1E6E
ENCODING 7790
SWIDTH 714 0
DWIDTH 10 0
BBX 10 12 0 -2
BITMAP
FFC0
8C40
0C00
0C00
0C00
0C00
0C00
0C00
0C00
1E00
0000
1E00
ENDCHAR
STARTCHAR uni1E6F
ENCODING 7791
SWIDTH 389 0
DWIDTH 5 0
BBX 5 11 0 -2
BITMAP
60
60
F8
60
60
60
60
60
78
00
78
ENDCHAR
STARTCHAR uni1E70
ENCODING 7792
SWIDTH 714 0
DWIDTH 10 0
BBX 10 13 0 -3
BITMAP
FFC0
8C40
0C00
0C00
0C00
0C00
0C00
0C00
0C00
1E00
0000
0E00
1B00
ENDCHAR
STARTCHAR uni1E71
ENCODING 7793
SWIDTH 389 0
DWIDTH 5 0
BBX 5 12 0 -3
BITMAP
60
60
F8
60
60
60
60
60
78
00
70
D8
ENDCHAR
STARTCHAR uni1E72
ENCODING 7794
SWIDTH 747 0
DWIDTH 10 0
BBX 10 13 0 -3
BITMAP
F1C0
6080
6080
6080
6080
6080
6080
6080
7180
3F00
0000
1200
1200
ENDCHAR
STARTCHAR uni1E73
ENCODING 7795
SWIDTH 654 0
DWIDTH 9 0
BBX 9 10 0 -3
BITMAP
E700
6300
6300
6300
6300
7F00
3B80
0000
1200
1200
ENDCHAR
STARTCHAR uni1E74
ENCODING 7796
SWIDTH 747 0
DWIDTH 10 0
BBX 10 13 0 -3
BITMAP
F1C0
6080
6080
6080
6080
6080
6080
6080
7180
3F00
0000
3A00
2E00
ENDCHAR
STARTCHAR uni1E75
ENCODING 7797
SWIDTH 654 0
DWIDTH 9 0
BBX 9 10 0 -3
BITMAP
E700
6300
6300
6300
6300
7F00
3B80
0000
3A00
2E00
ENDCHAR
STARTCHAR uni1E76
ENCODING 7798
SWIDTH 747 0
DWIDTH 10 0
BBX 10 13 0 -3
BITMAP
F1C0
6080
6080
6080
6080
6080
6080
6080
7180
3F00
0000
1C00
3600
ENDCHAR
STARTCHAR uni1E77
ENCODING 7799
SWIDTH 654 0
DWIDTH 9 0
BBX 9 10 0 -3
BITMAP
E700
6300
6300
6300
6300
7F00
3B80
0000
1C00
3600
ENDCHAR
STARTCHAR uni1E78
ENCODING 7800
SWIDTH 747 0
DWIDTH 10 0
BBX 10 16 0 0
BITMAP
0600
0800
0000
3A00
2E00
0000
F1C0
6080
6080
6080
6080
6080
6080
6080
7180
3F00
ENDCHAR
STARTCHAR uni1E79
ENCODING 7801
SWIDTH 654 0
DWIDTH 9 0
BBX 9 13 0 0
BITMAP
0600
0800
0000
3A00
2E00
0000
E700
6300
6300
6300
6300
7F00
3B80
ENDCHAR
STARTCHAR uni1E7A
ENCODING 7802
SWIDTH 747 0
DWIDTH 10 0
BBX 10 15 0 0
BITMAP
1200
1200
0000
1E00
0000
F1C0
6080
6080
6080
6080
6080
6080
6080
7180
3F00
ENDCHAR
STARTCHAR uni1E7B
ENCODING 7803
SWIDTH 654 0
DWIDTH 9 0
BBX 9 12 0 0
BITMAP
2400
2400
0000
3C00
0000
E700
6300
6300
6300
6300
7F00
3B80
ENDCHAR
STARTCHAR uni1E7C
ENCODING 7804
SWIDTH 753 0
DWIDTH 11 0
BBX 11 13 0 0
BITMAP
1D00
1700
0000
F8E0
7040
30C0
3080
1980
1900
0D00
0E00
0600
0400
ENDCHAR
STARTCHAR uni1E7D
ENCODING 7805
SWIDTH 657 0
DWIDTH 9 0
BBX 9 10 0 0
BITMAP
3A00
2E00
0000
F380
6100
3200
3200
1C00
1C00
0800
ENDCHAR
STARTCHAR uni1E7E
ENCODING 7806
SWIDTH 753 0
DWIDTH 11 0
BBX 11 13 0 -3
BITMAP
F8E0
7040
30C0
3080
1980
1900
0D00
0E00
0600
0400
0000
0600
0600
ENDCHAR
STARTCHAR uni1E7F
ENCODING 7807
SWIDTH 657 0
DWIDTH 9 0
BBX 9 10 0 -3
BITMAP
F380
6100
3200
3200
1C00
1C00
0800
0000
0C00
0C00
ENDCHAR
STARTCHAR Wgrave
ENCODING 7808
SWIDTH 955 0
DWIDTH 13 0
BBX 13 13 0 0
BITMAP
0C00
0200
0000
F338
6310
6310
7720
35A0
35A0
39C0
18C0
18C0
10C0
ENDCHAR
STARTCHAR wgrave
ENCODING 7809
SWIDTH 880 0
DWIDTH 12 0
BBX 12 10 0 0
BITMAP
0C00
0200
0000
F270
6720
6720
3740
39C0
1980
1080
ENDCHAR
STARTCHAR Wacute
ENCODING 7810
SWIDTH 955 0
DWIDTH 13 0
BBX 13 13 0 0
BITMAP
0300
0400
0000
F338
6310
6310
7720
35A0
35A0
39C0
18C0
18C0
10C0
ENDCHAR
STARTCHAR wacute
ENCODING 7811
SWIDTH 880 0
DWIDTH 12 0
BBX 12 10 0 0
BITMAP
0300
0400
0000
F270
6720
6720
3740
39C0
1980
1080
ENDCHAR
STARTCHAR Wdieresis
ENCODING 7812
SWIDTH 955 0
DWIDTH 13 0
BBX 13 13 0 0
BITMAP
0900
0900
0000
F338
6310
6310
7720
35A0
35A0
39C0
18C0
18C0
10C0
ENDCHAR
STARTCHAR wdieresis
ENCODING 7813
SWIDTH 880 0
DWIDTH 12 0
BBX 12 10 0 0
BITMAP
0900
0900
0000
F270
6720
6720
3740
39C0
1980
1080
ENDCHAR
STARTCHAR uni1E86
ENCODING 7814
SWIDTH 955 0
DWIDTH 13 0
BBX 13 13 0 0
BITMAP
0600
0600
0000
F338
6310
6310
7720
35A0
35A0
39C0
18C0
18C0
10C0
ENDCHAR
STARTCHAR uni1E87
ENCODING 7815
SWIDTH 880 0
DWIDTH 12 0
BBX 12 10 0 0
BITMAP
0600
0600
0000
F270
6720
6720
3740
39C0
1980
1080
ENDCHAR
STARTCHAR uni1E88
ENCODING 7816
SWIDTH 955 0
DWIDTH 13 0
BBX 13 13 0 -3
BITMAP
F338
6310
6310
7720
35A0
35A0
39C0
18C0
18C0
10C0
0000
0300
0300
ENDCHAR
STARTCHAR uni1E89
ENCODING 7817
SWIDTH 880 0
DWIDTH 12 0
BBX 12 10 0 -3
BITMAP
F270
6720
6720
3740
39C0
1980
1080
0000
0600
0600
ENDCHAR
STARTCHAR uni1E8A
ENCODING 7818
SWIDTH 702 0
DWIDTH 10 0
BBX 10 13 0 0
BITMAP
0C00
0C00
0000
F9C0
7080
3900
1A00
1E00
1E00
1600
2300
4380
E3C0
ENDCHAR
STARTCHAR uni1E8B
ENCODING 7819
SWIDTH 608 0
DWIDTH 9 0
BBX 9 10 0 0
BITMAP
1800
1800
0000
FB80
7300
3E00
1C00
3E00
6700
E780
ENDCHAR
STARTCHAR uni1E8C
ENCODING 7820
SWIDTH 702 0
DWIDTH 10 0
BBX 10 13 0 0
BITMAP
1200
1200
0000
F9C0
7080
3900
1A00
1E00
1E00
1600
2300
4380
E3C0
ENDCHAR
STARTCHAR uni1E8D
ENCODING 7821
SWIDTH 608 0
DWIDTH 9 0
BBX 9 10 0 0
BITMAP
2400
2400
0000
FB80
7300
3E00
1C00
3E00
6700
E780
ENDCHAR
STARTCHAR uni1E8E
ENCODING 7822
SWIDTH 717 0
DWIDTH 10 0
BBX 10 13 0 0
BITMAP
0C00
0C00
0000
F1C0
7080
3100
1B00
1E00
0C00
0C00
0C00
0C00
1E00
ENDCHAR
STARTCHAR uni1E8F
ENCODING 7823
SWIDTH 654 0
DWIDTH 9 0
BBX 9 13 0 -3
BITMAP
1800
1800
0000
F380
6100
3300
3200
1C00
1C00
1800
0800
1000
7000
ENDCHAR
STARTCHAR uni1E90
ENCODING 7824
SWIDTH 639 0
DWIDTH 9 0
BBX 8 13 0 0
BITMAP
1C
36
00
FF
87
0E
0C
1C
38
30
70
E1
FF
ENDCHAR
STARTCHAR uni1E91
ENCODING 7825
SWIDTH 584 0
DWIDTH 8 0
BBX 7 10 1 0
BITMAP
38
6C
00
FE
8C
1C
38
70
E2
FE
ENDCHAR
STARTCHAR uni1E92
ENCODING 7826
SWIDTH 639 0
DWIDTH 9 0
BBX 8 13 0 -3
BITMAP
FF
87
0E
0C
1C
38
30
70
E1
FF
00
18
18
ENDCHAR
STARTCHAR uni1E93
ENCODING 7827
SWIDTH 584 0
DWIDTH 8 0
BBX 7 10 1 -3
BITMAP
FE
8C
1C
38
70
E2
FE
00
30
30
ENDCHAR
STARTCHAR uni1E94
ENCODING 7828
SWIDTH 639 0
DWIDTH 9 0
BBX 8 12 0 -2
BITMAP
FF
87
0E
0C
1C
38
30
70
E1
FF
00
3C
ENDCHAR
STARTCHAR uni1E95
ENCODING 7829
SWIDTH 584 0
DWIDTH 8 0
BBX 7 9 1 -2
BITMAP
FE
8C
1C
38
70
E2
FE
00
78
ENDCHAR
STARTCHAR uni1E96
ENCODING 7830
SWIDTH 654 0
DWIDTH 9 0
BBX 9 12 0 -2
BITMAP
E000
6000
6000
6E00
7F00
6300
6300
6300
6300
F780
0000
1E00
ENDCHAR
STARTCHAR uni1E97
ENCODING 7831
SWIDTH 389 0
DWIDTH 5 0
BBX 5 12 0 0
BITMAP
90
90
00
60
60
F8
60
60
60
60
60
78
ENDCHAR
STARTCHAR uni1E98
ENCODING 7832
SWIDTH 880 0
DWIDTH 12 0
BBX 12 10 0 0
BITMAP
0600
0600
0000
F270
6720
6720
3740
39C0
1980
1080
ENDCHAR
STARTCHAR uni1E99
ENCODING 7833
SWIDTH 654 0
DWIDTH 9 0
BBX 9 13 0 -3
BITMAP
1800
1800
0000
F380
6100
3300
3200
1C00
1C00
1800
0800
1000
7000
ENDCHAR
STARTCHAR uni1EA0
ENCODING 7840
SWIDTH 795 0
DWIDTH 11 0
BBX 11 13 0 -3
BITMAP
0400
0E00
0E00
1700
1300
2380
3F80
41C0
40C0
E1E0
0000
0600
0600
ENDCHAR
STARTCHAR uni1EA1
ENCODING 7841
SWIDTH 556 0
DWIDTH 8 0
BBX 7 10 0 -3
BITMAP
78
4C
0C
7C
CC
CC
76
00
18
18
ENDCHAR
STARTCHAR uni1EA4
ENCODING 7844
SWIDTH 795 0
DWIDTH 11 0
BBX 11 16 0 0
BITMAP
0300
0400
0000
0E00
1B00
0000
0400
0E00
0E00
1700
1300
2380
3F80
41C0
40C0
E1E0
ENDCHAR
STARTCHAR uni1EA5
ENCODING 7845
SWIDTH 556 0
DWIDTH 8 0
BBX 7 13 0 0
BITMAP
0C
10
00
38
6C
00
78
4C
0C
7C
CC
CC
76
ENDCHAR
STARTCHAR uni1EA6
ENCODING 7846
SWIDTH 795 0
DWIDTH 11 0
BBX 11 16 0 0
BITMAP
1800
0400
0000
0E00
1B00
0000
0400
0E00
0E00
1700
1300
2380
3F80
41C0
40C0
E1E0
ENDCHAR
STARTCHAR uni1EA7
ENCODING 7847
SWIDTH 556 0
DWIDTH 8 0
BBX 7 13 0 0
BITMAP
60
10
00
38
6C
00
78
4C
0C
7C
CC
CC
76
ENDCHAR
STARTCHAR uni1EAA
ENCODING 7850
SWIDTH 795 0
DWIDTH 11 0
BBX 11 16 0 0
BITMAP
1D00
1700
0000
0E00
1B00
0000
0400
0E00
0E00
1700
1300
2380
3F80
41C0
40C0
E1E0
ENDCHAR
STARTCHAR uni1EAB
ENCODING 7851
SWIDTH 556 0
DWIDTH 8 0
BBX 7 13 0 0
BITMAP
74
5C
00
38
6C
00
78
4C
0C
7C
CC
CC
76
ENDCHAR
STARTCHAR uni1EAC
ENCODING 7852
SWIDTH 795 0
DWIDTH 11 0
BBX 11 16 0 -3
BITMAP
0E00
1B00
0000
0400
0E00
0E00
1700
1300
2380
3F80
41C0
40C0
E1E0
0000
0600
0600
ENDCHAR
STARTCHAR uni1EAD
ENCODING 7853
SWIDTH 556 0
DWIDTH 8 0
BBX 7 13 0 -3
BITMAP
38
6C
00
78
4C
0C
7C
CC
CC
76
00
18
18
ENDCHAR
STARTCHAR uni1EAE
ENCODING 7854
SWIDTH 795 0
DWIDTH 11 0
BBX 11 16 0 0
BITMAP
0300
0400
0000
1100
0E00
0000
0400
0E00
0E00
1700
1300
2380
3F80
41C0
40C0
E1E0
ENDCHAR
STARTCHAR uni1EAF
ENCODING 7855
SWIDTH 556 0
DWIDTH 8 0
BBX 7 13 0 0
BITMAP
0C
10
00
44
38
00
78
4C
0C
7C
CC
CC
76
ENDCHAR
STARTCHAR uni1EB0
ENCODING 7856
SWIDTH 795 0
DWIDTH 11 0
BBX 11 16 0 0
BITMAP
1800
0400
0000
1100
0E00
0000
0400
0E00
0E00
1700
1300
2380
3F80
41C0
40C0
E1E0
ENDCHAR
STARTCHAR uni1EB1
ENCODING 7857
SWIDTH 556 0
DWIDTH 8 0
BBX 7 13 0 0
BITMAP
60
10
00
44
38
00
78
4C
0C
7C
CC
CC
76
ENDCHAR
STARTCHAR uni1EB4
ENCODING 7860
SWIDTH 795 0
DWIDTH 11 0
BBX 11 16 0 0
BITMAP
1D00
1700
0000
1100
0E00
0000
0400
0E00
0E00
1700
1300
2380
3F80
41C0
40C0
E1E0
ENDCHAR
STARTCHAR uni1EB5
ENCODING 7861
SWIDTH 556 0
DWIDTH 8 0
BBX 7 13 0 0
BITMAP
74
5C
00
44
38
00
78
4C
0C
7C
CC
CC
76
ENDCHAR
STARTCHAR uni1EB6
ENCODING 7862
SWIDTH 795 0
DWIDTH 11 0
BBX 11 16 0 -3
BITMAP
1100
0E00
0000
0400
0E00
0E00
1700
1300
2380
3F80
41C0
40C0
E1E0
0000
0600
0600
ENDCHAR
STARTCHAR uni1EB7
ENCODING 7863
SWIDTH 556 0
DWIDTH 8 0
BBX 7 13 0 -3
BITMAP
44
38
00
78
4C
0C
7C
CC
CC
76
00
18
18
ENDCHAR
STARTCHAR uni1EB8
ENCODING 7864
SWIDTH 601 0
DWIDTH 8 0
BBX 7 13 1 -3
BITMAP
FE
62
60
64
7C
64
60
60
62
FE
00
30
30
ENDCHAR
STARTCHAR uni1EB9
ENCODING 7865
SWIDTH 568 0
DWIDTH 8 0
BBX 7 10 0 -3
BITMAP
38
44
C6
FE
C0
60
3E
00
18
18
ENDCHAR
STARTCHAR uni1EBC
ENCODING 7868
SWIDTH 601 0
DWIDTH 8 0
BBX 7 13 1 0
BITMAP
74
5C
00
FE
62
60
64
7C
64
60
60
62
FE
ENDCHAR
STARTCHAR uni1EBD
ENCODING 7869
SWIDTH 568 0
DWIDTH 8 0
BBX 7 10 0 0
BITMAP
74
5C
00
38
44
C6
FE
C0
60
3E
ENDCHAR
STARTCHAR uni1EBE
ENCODING 7870
SWIDTH 601 0
DWIDTH 8 0
BBX 7 16 1 0
BITMAP
0C
10
00
38
6C
00
FE
62
60
64
7C
64
60
60
62
FE
ENDCHAR
STARTCHAR uni1EBF
ENCODING 7871
SWIDTH 568 0
DWIDTH 8 0
BBX 7 13 0 0
BITMAP
0C
10
00
38
6C
00
38
44
C6
FE
C0
60
3E
ENDCHAR
STARTCHAR uni1EC0
ENCODING 7872
SWIDTH 601 0
DWIDTH 8 0
BBX 7 16 1 0
BITMAP
60
10
00
38
6C
00
FE
62
60
64
7C
64
60
60
62
FE
ENDCHAR
STARTCHAR uni1EC1
ENCODING 7873
SWIDTH 568 0
DWIDTH 8 0
BBX 7 13 0 0
BITMAP
60
10
00
38
6C
00
38
44
C6
FE
C0
60
3E
ENDCHAR
STARTCHAR uni1EC4
ENCODING 7876
SWIDTH 601 0
DWIDTH 8 0
BBX 7 16 1 0
BITMAP
74
5C
00
38
6C
00
FE
62
60
64
7C
64
60
60
62
FE
ENDCHAR
STARTCHAR uni1EC5
ENCODING 7877
SWIDTH 568 0
DWIDTH 8 0
BBX 7 13 0 0
BITMAP
74
5C
00
38
6C
00
38
44
C6
FE
C0
60
3E
ENDCHAR
STARTCHAR uni1EC6
ENCODING 7878
SWIDTH 601 0
DWIDTH 8 0
BBX 7 16 1 -3
BITMAP
38
6C
00
FE
62
60
64
7C
64
60
60
62
FE
00
30
30
ENDCHAR
STARTCHAR uni1EC7
ENCODING 7879
SWIDTH 568 0
DWIDTH 8 0
BBX 7 13 0 -3
BITMAP
38
6C
00
38
44
C6
FE
C0
60
3E
00
18
18
ENDCHAR
STARTCHAR uni1ECA
ENCODING 7882
SWIDTH 349 0
DWIDTH 5 0
BBX 4 13 0 -3
BITMAP
F0
60
60
60
60
60
60
60
60
F0
00
60
60
ENDCHAR
STARTCHAR uni1ECB
ENCODING 7883
SWIDTH 325 0
DWIDTH 5 0
BBX 4 13 0 -3
BITMAP
60
60
00
E0
60
60
60
60
60
F0
00
60
60
ENDCHAR
STARTCHAR uni1ECC
ENCODING 7884
SWIDTH 810 0
DWIDTH 11 0
BBX 10 13 1 -3
BITMAP
1E00
6180
6180
C0C0
C0C0
C0C0
C0C0
6180
6180
1E00
0000
0C00
0C00
ENDCHAR
STARTCHAR uni1ECD
ENCODING 7885
SWIDTH 617 0
DWIDTH 9 0
BBX 8 10 0 -3
BITMAP
3C
66
C3
C3
C3
66
3C
00
18
18
ENDCHAR
STARTCHAR uni1ED0
ENCODING 7888
SWIDTH 810 0
DWIDTH 11 0
BBX 10 16 1 0
BITMAP
0600
0800
0000
1C00
3600
0000
1E00
6180
6180
C0C0
C0C0
C0C0
C0C0
6180
6180
1E00
ENDCHAR
STARTCHAR uni1ED1
ENCODING 7889
SWIDTH 617 0
DWIDTH 9 0
BBX 8 13 0 0
BITMAP
06
08
00
1C
36
00
3C
66
C3
C3
C3
66
3C
ENDCHAR
STARTCHAR uni1ED2
ENCODING 7890
SWIDTH 810 0
DWIDTH 11 0
BBX 10 16 1 0
BITMAP
1800
0400
0000
1C00
3600
0000
1E00
6180
6180
C0C0
C0C0
C0C0
C0C0
6180
6180
1E00
ENDCHAR
STARTCHAR uni1ED3
ENCODING 7891
SWIDTH 617 0
DWIDTH 9 0
BBX 8 13 0 0
BITMAP
30
08
00
1C
36
00
3C
66
C3
C3
C3
66
3C
ENDCHAR
STARTCHAR uni1ED6
ENCODING 7894
SWIDTH 810 0
DWIDTH 11 0
BBX 10 16 1 0
BITMAP
3A00
2E00
0000
1C00
3600
0000
1E00
6180
6180
C0C0
C0C0
C0C0
C0C0
6180
6180
1E00
ENDCHAR
STARTCHAR uni1ED7
ENCODING 7895
SWIDTH 617 0
DWIDTH 9 0
BBX 8 13 0 0
BITMAP
3A
2E
00
1C
36
00
3C
66
C3
C3
C3
66
3C
ENDCHAR
STARTCHAR uni1ED8
ENCODING 7896
SWIDTH 810 0
DWIDTH 11 0
BBX 10 16 1 -3
BITMAP
0E00
1B00
0000
1E00
6180
6180
C0C0
C0C0
C0C0
C0C0
6180
6180
1E00
0000
0C00
0C00
ENDCHAR
STARTCHAR uni1ED9
ENCODING 7897
SWIDTH 617 0
DWIDTH 9 0
BBX 8 13 0 -3
BITMAP
1C
36
00
3C
66
C3
C3
C3
66
3C
00
18
18
ENDCHAR
STARTCHAR uni1EDA
ENCODING 7898
SWIDTH 810 0
DWIDTH 11 0
BBX 11 13 1 0
BITMAP
0300
0400
0000
1E60
61E0
61E0
C0E0
C0C0
C0C0
C0C0
6180
6180
1E00
ENDCHAR
STARTCHAR uni1EDB
ENCODING 7899
SWIDTH 617 0
DWIDTH 9 0
BBX 10 10 0 0
BITMAP
0300
0400
0000
3CC0
66C0
C3C0
C3C0
C300
6600
3C00
ENDCHAR
STARTCHAR uni1EDC
ENCODING 7900
SWIDTH 810 0
DWIDTH 11 0
BBX 11 13 1 0
BITMAP
0C00
0200
0000
1E60
61E0
61E0
C0E0
C0C0
C0C0
C0C0
6180
6180
1E00
ENDCHAR
STARTCHAR uni1EDD
ENCODING 7901
SWIDTH 617 0
DWIDTH 9 0
BBX 10 10 0 0
BITMAP
1800
0400
0000
3CC0
66C0
C3C0
C3C0
C300
6600
3C00
ENDCHAR
STARTCHAR uni1EE0
ENCODING 7904
SWIDTH 810 0
DWIDTH 11 0
BBX 11 13 1 0
BITMAP
0E80
0B80
0000
1E60
61E0
61E0
C0E0
C0C0
C0C0
C0C0
6180
6180
1E00
ENDCHAR
STARTCHAR uni1EE1
ENCODING 7905
SWIDTH 617 0
DWIDTH 9 0
BBX 10 10 0 0
BITMAP
1D00
1700
0000
3CC0
66C0
C3C0
C3C0
C300
6600
3C00
ENDCHAR
STARTCHAR uni1EE2
ENCODING 7906
SWIDTH 810 0
DWIDTH 11 0
BBX 11 13 1 -3
BITMAP
1E60
61E0
61E0
C0E0
C0C0
C0C0
C0C0
6180
6180
1E00
0000
0C00
0C00
ENDCHAR
STARTCHAR uni1EE3
ENCODING 7907
SWIDTH 617 0
DWIDTH 9 0
BBX 10 10 0 -3
BITMAP
3CC0
66C0
C3C0
C3C0
C300
6600
3C00
0000
1800
1800
ENDCHAR
STARTCHAR uni1EE4
ENCODING 7908
SWIDTH 747 0
DWIDTH 10 0
BBX 10 13 0 -3
BITMAP
F1C0
6080
6080
6080
6080
6080
6080
6080
7180
3F00
0000
0C00
0C00
ENDCHAR
STARTCHAR uni1EE5
ENCODING 7909
SWIDTH 654 0
DWIDTH 9 0
BBX 9 10 0 -3
BITMAP
E700
6300
6300
6300
6300
7F00
3B80
0000
0C00
0C00
ENDCHAR
STARTCHAR uni1EE8
ENCODING 7912
SWIDTH 747 0
DWIDTH 10 0
BBX 11 13 0 0
BITMAP
0300
0400
0000
F1E0
60E0
60E0
60E0
6080
6080
6080
6080
7180
3F00
ENDCHAR
STARTCHAR uni1EE9
ENCODING 7913
SWIDTH 654 0
DWIDTH 9 0
BBX 10 10 0 0
BITMAP
0300
0400
0000
E7C0
63C0
63C0
63C0
6300
7F00
3B80
ENDCHAR
STARTCHAR uni1EEA
ENCODING 7914
SWIDTH 747 0
DWIDTH 10 0
BBX 11 13 0 0
BITMAP
0C00
0200
0000
F1E0
60E0
60E0
60E0
6080
6080
6080
6080
7180
3F00
ENDCHAR
STARTCHAR uni1EEB
ENCODING 7915
SWIDTH 654 0
DWIDTH 9 0
BBX 10 10 0 0
BITMAP
1800
0400
0000
E7C0
63C0
63C0
63C0
6300
7F00
3B80
ENDCHAR
STARTCHAR uni1EEE
ENCODING 7918
SWIDTH 747 0
DWIDTH 10 0
BBX 11 13 0 0
BITMAP
1D00
1700
0000
F1E0
60E0
60E0
60E0
6080
6080
6080
6080
7180
3F00
ENDCHAR
STARTCHAR uni1EEF
ENCODING 7919
SWIDTH 654 0
DWIDTH 9 0
BBX 10 10 0 0
BITMAP
1D00
1700
0000
E7C0
63C0
63C0
63C0
6300
7F00
3B80
ENDCHAR
STARTCHAR uni1EF0
ENCODING 7920
SWIDTH 747 0
DWIDTH 10 0
BBX 11 13 0 -3
BITMAP
F1E0
60E0
60E0
60E0
6080
6080
6080
6080
7180
3F00
0000
0C00
0C00
ENDCHAR
STARTCHAR uni1EF1
ENCODING 7921
SWIDTH 654 0
DWIDTH 9 0
BBX 10 10 0 -3
BITMAP
E7C0
63C0
63C0
63C0
6300
7F00
3B80
0000
0C00
0C00
ENDCHAR
STARTCHAR Ygrave
ENCODING 7922
SWIDTH 717 0
DWIDTH 10 0
BBX 10 13 0 0
BITMAP
1800
0400
0000
F1C0
7080
3100
1B00
1E00
0C00
0C00
0C00
0C00
1E00
ENDCHAR
STARTCHAR ygrave
ENCODING 7923
SWIDTH 654 0
DWIDTH 9 0
BBX 9 13 0 -3
BITMAP
3000
0800
0000
F380
6100
3300
3200
1C00
1C00
1800
0800
1000
7000
ENDCHAR
STARTCHAR uni1EF4
ENCODING 7924
SWIDTH 717 0
DWIDTH 10 0
BBX 10 13 0 -3
BITMAP
F1C0
7080
3100
1B00
1E00
0C00
0C00
0C00
0C00
1E00
0000
0C00
0C00
ENDCHAR
STARTCHAR uni1EF5
ENCODING 7925
SWIDTH 654 0
DWIDTH 9 0
BBX 9 13 0 -6
BITMAP
F380
6100
3300
3200
1C00
1C00
1800
0800
1000
7000
0000
1800
1800
ENDCHAR
STARTCHAR uni1EF8
ENCODING 7928
SWIDTH 717 0
DWIDTH 10 0
BBX 10 13 0 0
BITMAP
3A00
2E00
0000
F1C0
7080
3100
1B00
1E00
0C00
0C00
0C00
0C00
1E00
ENDCHAR
STARTCHAR uni1EF9
ENCODING 7929
SWIDTH 654 0
DWIDTH 9 0
BBX 9 13 0 -3
BITMAP
3A00
2E00
0000
F380
6100
3300
3200
1C00
1C00
1800
0800
1000
7000
ENDCHAR
STARTCHAR uni2000
ENCODING 8192
SWIDTH 500 0
DWIDTH 7 0
BBX 1 1 0 0
BITMAP
00
ENDCHAR
STARTCHAR uni2001
ENCODING 8193
SWIDTH 1000 0
DWIDTH 15 0
BBX 1 1 0 0
BITMAP
00
ENDCHAR
STARTCHAR uni2002
ENCODING 8194
SWIDTH 500 0
DWIDTH 7 0
BBX 1 1 0 0
BITMAP
00
ENDCHAR
STARTCHAR uni2003
ENCODING 8195
SWIDTH 1000 0
DWIDTH 15 0
BBX 1 1 0 0
BITMAP
00
ENDCHAR
STARTCHAR uni2004
ENCODING 8196
SWIDTH 333 0
DWIDTH 5 0
BBX 1 1 0 0
BITMAP
00
ENDCHAR
STARTCHAR uni2005
ENCODING 8197
SWIDTH 250 0
DWIDTH 4 0
BBX 1 1 0 0
BITMAP
00
ENDCHAR
STARTCHAR uni2006
ENCODING 8198
SWIDTH 167 0
DWIDTH 2 0
BBX 1 1 0 0
BITMAP
00
ENDCHAR
STARTCHAR uni2007
ENCODING 8199
SWIDTH 623 0
DWIDTH 9 0
BBX 1 1 0 0
BITMAP
00
ENDCHAR
STARTCHAR uni2008
ENCODING 8200
SWIDTH 265 0
DWIDTH 4 0
BBX 1 1 0 0
BITMAP
00
ENDCHAR
STARTCHAR uni2009
ENCODING 8201
SWIDTH 200 0
DWIDTH 3 0
BBX 1 1 0 0
BITMAP
00
ENDCHAR
STARTCHAR uni200A
ENCODING 8202
SWIDTH 100 0
DWIDTH 1 0
BBX 1 1 0 0
BITMAP
00
ENDCHAR
STARTCHAR uni200B
ENCODING 8203
SWIDTH 0 0
DWIDTH 0 0
BBX 1 1 0 0
BITMAP
00
ENDCHAR
STARTCHAR uni2010
ENCODING 8208
SWIDTH 289 0
DWIDTH 4 0
BBX 3 2 1 3
BITMAP
E0
E0
ENDCHAR
STARTCHAR uni2011
ENCODING 8209
SWIDTH 289 0
DWIDTH 4 0
BBX 3 2 1 3
BITMAP
E0
E0
ENDCHAR
STARTCHAR figuredash
ENCODING 8210
SWIDTH 500 0
DWIDTH 7 0
BBX 6 1 1 4
BITMAP
FC
ENDCHAR
STARTCHAR endash
ENCODING 8211
SWIDTH 500 0
DWIDTH 7 0
BBX 6 1 1 4
BITMAP
FC
ENDCHAR
STARTCHAR emdash
ENCODING 8212
SWIDTH 1000 0
DWIDTH 14 0
BBX 13 1 1 3
BITMAP
FFF8
ENDCHAR
STARTCHAR afii00208
ENCODING 8213
SWIDTH 1000 0
DWIDTH 14 0
BBX 13 1 1 3
BITMAP
FFF8
ENDCHAR
STARTCHAR quoteleft
ENCODING 8216
SWIDTH 265 0
DWIDTH 4 0
BBX 2 4 1 6
BITMAP
C0
C0
C0
C0
ENDCHAR
STARTCHAR quoteright
ENCODING 8217
SWIDTH 265 0
DWIDTH 4 0
BBX 2 4 1 6
BITMAP
C0
C0
C0
C0
ENDCHAR
STARTCHAR quotesinglbase
ENCODING 8218
SWIDTH 265 0
DWIDTH 4 0
BBX 2 5 1 -3
BITMAP
C0
C0
C0
C0
C0
ENDCHAR
STARTCHAR quotereversed
ENCODING 8219
SWIDTH 265 0
DWIDTH 4 0
BBX 2 4 1 6
BITMAP
C0
C0
C0
C0
ENDCHAR
STARTCHAR quotedblleft
ENCODING 8220
SWIDTH 470 0
DWIDTH 7 0
BBX 5 4 1 6
BITMAP
D8
F0
F8
F8
ENDCHAR
STARTCHAR quotedblright
ENCODING 8221
SWIDTH 470 0
DWIDTH 7 0
BBX 5 4 1 6
BITMAP
D8
D8
D8
D8
ENDCHAR
STARTCHAR quotedblbase
ENCODING 8222
SWIDTH 470 0
DWIDTH 7 0
BBX 5 5 1 -3
BITMAP
D8
D8
D8
D8
90
ENDCHAR
STARTCHAR uni201F
ENCODING 8223
SWIDTH 470 0
DWIDTH 7 0
BBX 5 4 1 6
BITMAP
D8
D8
D8
D8
ENDCHAR
STARTCHAR dagger
ENCODING 8224
SWIDTH 623 0
DWIDTH 9 0
BBX 6 13 1 -3
BITMAP
30
30
30
B4
FC
30
30
30
30
30
30
30
30
ENDCHAR
STARTCHAR daggerdbl
ENCODING 8225
SWIDTH 623 0
DWIDTH 9 0
BBX 6 13 1 -3
BITMAP
30
30
30
B4
FC
30
30
B4
FC
30
30
30
30
ENDCHAR
STARTCHAR bullet
ENCODING 8226
SWIDTH 623 0
DWIDTH 9 0
BBX 5 5 2 1
BITMAP
70
F8
F8
F8
70
ENDCHAR
STARTCHAR ellipsis
ENCODING 8230
SWIDTH 1000 0
DWIDTH 14 0
BBX 11 2 2 0
BITMAP
CC60
CC60
ENDCHAR
STARTCHAR perthousand
ENCODING 8240
SWIDTH 1139 0
DWIDTH 16 0
BBX 15 10 0 0
BITMAP
70C0
D980
DB00
DA00
7400
0B9C
16F6
36F6
66F6
C39C
ENDCHAR
STARTCHAR guilsinglleft
ENCODING 8249
SWIDTH 337 0
DWIDTH 5 0
BBX 4 7 0 0
BITMAP
10
20
60
C0
60
20
10
ENDCHAR
STARTCHAR guilsinglright
ENCODING 8250
SWIDTH 337 0
DWIDTH 5 0
BBX 4 7 1 0
BITMAP
80
40
60
30
60
40
80
ENDCHAR
STARTCHAR fraction
ENCODING 8260
SWIDTH 55 0
DWIDTH 1 0
BBX 11 10 -2 0
BITMAP
00E0
0180
0380
0700
0600
0C00
1C00
3800
3000
E000
ENDCHAR
STARTCHAR oneinferior
ENCODING 8321
SWIDTH 374 0
DWIDTH 5 0
BBX 3 6 -8 -3
BITMAP
C0
40
40
40
40
E0
ENDCHAR
STARTCHAR twoinferior
ENCODING 8322
SWIDTH 374 0
DWIDTH 5 0
BBX 4 6 -8 -3
BITMAP
E0
90
10
60
40
F0
ENDCHAR
STARTCHAR threeinferior
ENCODING 8323
SWIDTH 374 0
DWIDTH 5 0
BBX 4 6 -8 -3
BITMAP
F0
90
60
10
90
E0
ENDCHAR
STARTCHAR uni20A5
ENCODING 8357
SWIDTH 967 0
DWIDTH 14 0
BBX 14 13 0 -3
BITMAP
0020
0040
0040
EEF0
7FF8
6318
6318
6318
6318
F7BC
0400
0400
0800
ENDCHAR
STARTCHAR uni20A6
ENCODING 8358
SWIDTH 788 0
DWIDTH 11 0
BBX 10 10 0 0
BITMAP
E1C0
7080
7080
7F80
5C80
4E80
7F80
4380
4380
E180
ENDCHAR
STARTCHAR uni20A9
ENCODING 8361
SWIDTH 955 0
DWIDTH 13 0
BBX 13 10 0 0
BITMAP
F338
6310
6310
7FE0
35A0
35A0
3FE0
18C0
18C0
10C0
ENDCHAR
STARTCHAR Euro
ENCODING 8364
SWIDTH 711 0
DWIDTH 10 0
BBX 11 10 -2 0
BITMAP
07E0
1C20
1820
FF00
3000
3000
FF00
1800
1C20
07C0
ENDCHAR
STARTCHAR uni20AD
ENCODING 8365
SWIDTH 747 0
DWIDTH 10 0
BBX 10 10 0 0
BITMAP
F380
6100
6600
6C00
FFC0
7C00
6E00
6700
6380
F7C0
ENDCHAR
STARTCHAR uni2103
ENCODING 8451
SWIDTH 957 0
DWIDTH 14 0
BBX 11 10 2 0
BITMAP
E7E0
7C20
1820
3000
3000
3000
3000
1800
1C20
07C0
ENDCHAR
STARTCHAR uni2109
ENCODING 8457
SWIDTH 830 0
DWIDTH 12 0
BBX 9 10 2 0
BITMAP
FF80
7880
1800
1900
1F00
1900
1800
1800
1800
3C00
ENDCHAR
STARTCHAR trademark
ENCODING 8482
SWIDTH 1044 0
DWIDTH 15 0
BBX 13 5 1 5
BITMAP
FFB8
B5B0
31B0
31F0
7B38
ENDCHAR
STARTCHAR uni212A
ENCODING 8490
SWIDTH 747 0
DWIDTH 10 0
BBX 10 10 0 0
BITMAP
F380
6100
6600
6C00
7800
7C00
6E00
6700
6380
F7C0
ENDCHAR
STARTCHAR uni212B
ENCODING 8491
SWIDTH 795 0
DWIDTH 11 0
BBX 11 13 0 0
BITMAP
0C00
0C00
0000
0400
0E00
0E00
1700
1300
2380
3F80
41C0
40C0
E1E0
ENDCHAR
STARTCHAR uni2132
ENCODING 8498
SWIDTH 584 0
DWIDTH 8 0
BBX 7 10 0 0
BITMAP
1E
0C
0C
0C
4C
7C
4C
0C
8C
FE
ENDCHAR
STARTCHAR universal
ENCODING 8704
SWIDTH 795 0
DWIDTH 11 0
BBX 11 10 0 0
BITMAP
E1E0
40C0
41C0
3F80
2380
1300
1700
0E00
0E00
0400
ENDCHAR
STARTCHAR existential
ENCODING 8707
SWIDTH 601 0
DWIDTH 8 0
BBX 7 10 1 0
BITMAP
FE
8C
0C
4C
7C
4C
0C
0C
8C
FE
ENDCHAR
STARTCHAR uni2204
ENCODING 8708
SWIDTH 601 0
DWIDTH 8 0
BBX 7 13 1 -1
BITMAP
02
04
FE
8C
0C
5C
7C
5C
2C
2C
CC
FE
80
ENDCHAR
STARTCHAR minus
ENCODING 8722
SWIDTH 623 0
DWIDTH 9 0
BBX 8 1 0 3
BITMAP
FF
ENDCHAR
STARTCHAR fraction
ENCODING 8725
SWIDTH 55 0
DWIDTH 1 0
BBX 11 10 -2 0
BITMAP
00E0
0180
0380
0700
0600
0C00
1C00
3800
3000
E000
ENDCHAR
STARTCHAR periodcentered
ENCODING 8729
SWIDTH 623 0
DWIDTH 9 0
BBX 2 2 3 3
BITMAP
C0
C0
ENDCHAR
STARTCHAR uni2236
ENCODING 8758
SWIDTH 265 0
DWIDTH 4 0
BBX 2 7 1 0
BITMAP
C0
C0
00
00
00
C0
C0
ENDCHAR
STARTCHAR uni2259
ENCODING 8793
SWIDTH 623 0
DWIDTH 9 0
BBX 8 7 0 2
BITMAP
1C
36
00
FF
00
00
FF
ENDCHAR
STARTCHAR uni225A
ENCODING 8794
SWIDTH 623 0
DWIDTH 9 0
BBX 8 7 0 2
BITMAP
36
1C
00
FF
00
00
FF
ENDCHAR
STARTCHAR notequal
ENCODING 8800
SWIDTH 623 0
DWIDTH 9 0
BBX 8 13 0 -2
BITMAP
01
02
02
04
04
FF
08
08
FF
10
20
20
40
ENDCHAR
STARTCHAR equivalence
ENCODING 8801
SWIDTH 623 0
DWIDTH 9 0
BBX 8 5 0 1
BITMAP
FF
00
FF
00
FF
ENDCHAR
STARTCHAR uni2262
ENCODING 8802
SWIDTH 623 0
DWIDTH 9 0
BBX 8 13 0 -3
BITMAP
01
02
02
04
FF
08
FF
08
FF
10
20
20
40
ENDCHAR
STARTCHAR lessequal
ENCODING 8804
SWIDTH 623 0
DWIDTH 9 0
BBX 8 10 0 -2
BITMAP
01
06
18
E0
60
18
06
01
00
FF
ENDCHAR
STARTCHAR greaterequal
ENCODING 8805
SWIDTH 623 0
DWIDTH 9 0
BBX 8 10 0 -2
BITMAP
80
60
18
06
07
18
60
80
00
FF
ENDCHAR
STARTCHAR uni226E
ENCODING 8814
SWIDTH 623 0
DWIDTH 9 0
BBX 8 13 0 -2
BITMAP
01
02
02
05
06
18
E8
68
18
16
21
20
40
ENDCHAR
STARTCHAR uni226F
ENCODING 8815
SWIDTH 623 0
DWIDTH 9 0
BBX 8 13 0 -2
BITMAP
01
02
02
84
64
18
0E
0F
18
70
A0
20
40
ENDCHAR
STARTCHAR uni2270
ENCODING 8816
SWIDTH 623 0
DWIDTH 9 0
BBX 8 13 0 -3
BITMAP
01
02
03
06
1C
E8
68
18
16
11
20
FF
40
ENDCHAR
STARTCHAR uni2271
ENCODING 8817
SWIDTH 623 0
DWIDTH 9 0
BBX 8 13 0 -3
BITMAP
01
02
82
64
1C
0E
0F
18
70
90
20
FF
40
ENDCHAR
STARTCHAR fi
ENCODING -1
SWIDTH 672 0
DWIDTH 9 0
BBX 9 10 0 0
BITMAP
3B00
6B00
6000
FF00
6300
6300
6300
6300
6300
F780
ENDCHAR
STARTCHAR fl
ENCODING -1
SWIDTH 672 0
DWIDTH 9 0
BBX 9 10 0 0
BITMAP
3F00
6300
6300
FB00
6300
6300
6300
6300
6300
F780
ENDCHAR
ENDFONT
